<svg width="543" height="403" viewBox="0 0 543 403" fill="none" xmlns="http://www.w3.org/2000/svg">
<path d="M478.118 107.665C487.218 107.665 494.594 100.288 494.594 91.1879C494.594 82.0881 487.218 74.7112 478.118 74.7112C469.018 74.7112 461.641 82.0881 461.641 91.1879C461.641 100.288 469.018 107.665 478.118 107.665Z" fill="#BADDFF"/>
<path d="M172.526 138.634C172.526 125.459 160.164 114.773 144.875 114.773H105.773C90.5163 114.773 78.1221 104.103 78.1221 90.9277C78.1221 77.7528 90.4837 67.0828 105.773 67.0828H406.258C421.515 67.0828 433.909 77.7528 433.909 90.9277C433.909 104.103 421.547 114.773 406.258 114.773H386.983C371.743 114.773 359.332 125.459 359.332 138.634C359.332 151.792 371.694 162.479 386.983 162.479H515.333C530.573 162.479 542.984 173.149 542.984 186.323C542.984 199.498 530.622 210.168 515.333 210.168H458.079C442.822 210.168 430.428 220.855 430.428 234.03C430.428 247.204 442.855 257.923 458.079 257.923H470.213C485.47 257.923 497.864 268.593 497.864 281.768C497.864 294.943 485.502 305.613 470.213 305.613H391.733C376.492 305.613 364.082 316.299 364.082 329.474C364.082 342.633 376.444 353.319 391.733 353.319H515.349C530.59 353.319 543 363.989 543 377.164C543 390.339 530.638 401.009 515.349 401.009H41.753C26.5124 401.009 14.102 390.339 14.102 377.164C14.102 363.989 26.4636 353.319 41.753 353.319H114.296C129.537 353.319 141.947 342.633 141.947 329.474C141.947 316.299 129.585 305.613 114.296 305.613H71.0305C55.7899 305.613 43.3795 294.943 43.3795 281.768C43.3795 268.593 55.7411 257.923 71.0305 257.923H103.984C119.224 257.923 131.635 247.237 131.635 234.078C131.635 220.92 119.273 210.217 103.984 210.217H27.651C12.3941 210.217 0 199.547 0 186.372C0 173.197 12.3616 162.527 27.651 162.527H144.924C160.164 162.479 172.526 151.792 172.526 138.634Z" fill="#BADDFF"/>
<path d="M33.6204 107.665C42.7202 107.665 50.0971 100.288 50.0971 91.1879C50.0971 82.0881 42.7202 74.7112 33.6204 74.7112C24.5206 74.7112 17.1437 82.0881 17.1437 91.1879C17.1437 100.288 24.5206 107.665 33.6204 107.665Z" fill="#BADDFF"/>
<path d="M207.071 35.58C213.875 29.5372 214.492 19.123 208.449 12.3192C202.407 5.51541 191.992 4.89851 185.189 10.9413C178.385 16.9841 177.768 27.3984 183.811 34.2022C189.853 41.006 200.268 41.6228 207.071 35.58Z" fill="#BADDFF"/>
<path d="M207.382 363.94C208.358 365.177 209.285 366.364 210.196 367.486C216.011 364.166 221.463 360.247 226.462 355.792C227.828 354.588 229.357 353.124 230.983 351.579L234.236 348.553H228.186L227.974 348.749C221.845 354.74 214.915 359.853 207.382 363.94Z" fill="#0084FF"/>
<path d="M227.795 357.386C222.794 361.856 217.343 365.797 211.53 369.145C213.645 371.732 215.613 374.025 217.483 376.091C223.192 382.45 229.129 385.492 235.163 385.167C242.239 384.776 249.379 379.62 256.406 369.845C261.639 362.404 267.326 355.293 273.436 348.553H237.213C235.456 350.18 233.846 351.693 232.333 353.108C230.821 354.523 229.194 356.149 227.795 357.386Z" fill="#0084FF"/>
<path d="M84.547 336.354H59.8563V343.837H100.259C95.2008 338.876 89.8983 336.354 84.547 336.354Z" fill="#0084FF"/>
<path d="M127.992 352.75C121.073 348.548 113.181 346.217 105.09 345.983C105.399 346.374 105.724 346.748 106.033 347.155C106.123 347.262 106.189 347.386 106.229 347.52C106.268 347.654 106.28 347.795 106.263 347.933C106.247 348.072 106.202 348.206 106.131 348.326C106.061 348.447 105.967 348.552 105.855 348.635C105.672 348.786 105.441 348.867 105.204 348.862C105.043 348.864 104.885 348.829 104.741 348.758C104.597 348.687 104.471 348.584 104.374 348.456C103.675 347.577 102.976 346.829 102.276 345.951H59.8563V363.517H100.373C111.043 363.517 119.387 359.89 127.992 352.75Z" fill="#0084FF"/>
<path d="M103.219 343.837H104.114C113.163 343.901 122.016 346.48 129.683 351.286C131.196 349.952 132.725 348.521 134.27 346.976C124.055 338.648 113.889 335.297 104.114 335.297H90.8904C95.6497 337.068 99.8888 340.004 103.219 343.837V343.837Z" fill="#0084FF"/>
<path d="M100.259 343.837H59.8563C59.5759 343.837 59.307 343.948 59.1087 344.146C58.9105 344.345 58.7991 344.613 58.7991 344.894C58.7991 345.174 58.9105 345.443 59.1087 345.641C59.307 345.84 59.5759 345.951 59.8563 345.951H102.276C101.609 345.203 100.942 344.504 100.259 343.837Z" fill="white"/>
<path d="M226.396 355.792C221.397 360.247 215.946 364.166 210.131 367.486L211.481 369.113C217.294 365.764 222.744 361.823 227.746 357.353C229.145 356.117 230.69 354.637 232.333 353.075C233.976 351.514 235.407 350.115 237.213 348.521H234.09L230.837 351.546C229.291 353.124 227.763 354.588 226.396 355.792Z" fill="white"/>
<path d="M103.219 343.837C103.837 344.52 104.472 345.235 105.09 345.984C113.181 346.217 121.073 348.548 127.991 352.75L129.618 351.286C121.951 346.48 113.098 343.901 104.049 343.837H103.219Z" fill="white"/>
<path d="M185.863 353.986C200.86 369.796 209.855 379.018 217.402 385.492C226.185 393.055 240.173 398.341 256.438 380.612C268.8 367.275 282.463 354.588 299.606 348.505H276.363C269.775 355.586 263.683 363.113 258.13 371.032C250.729 381.344 243.036 386.793 235.359 387.216C235.017 387.216 234.675 387.216 234.334 387.216C228.007 387.216 221.842 383.963 215.987 377.457C210.131 370.951 203.104 361.956 193.085 348.488H179.357C181.752 350.035 183.939 351.883 185.863 353.986V353.986Z" fill="#FAC659"/>
<path d="M145.005 353.889C148.9 350.282 153.535 347.567 158.587 345.935C156.463 344.523 154.72 342.609 153.514 340.361C152.308 338.114 151.676 335.603 151.674 333.053V331.67C149.805 333.185 148.079 334.867 146.518 336.696C130.09 355.857 118.444 365.6 100.373 365.6H59.8563V375.733H100.373C117.679 375.766 128.935 368.414 145.005 353.889Z" fill="#FAC659"/>
<path d="M321.711 348.553H307.072C287.18 353.433 271.809 367.291 258.065 382.092C249.298 391.461 241.263 394.552 234.318 394.552C227.521 394.307 221.034 391.648 216.019 387.053C208.407 380.547 199.38 371.26 184.318 355.385C181.6 352.414 178.27 350.067 174.559 348.505H167.142C165.196 348.494 163.269 348.113 161.466 347.382C155.83 348.73 150.647 351.534 146.436 355.515C130.025 370.349 118.395 377.896 100.389 377.896H59.8563V399.919H321.727L321.711 348.553Z" fill="#FAC659"/>
<path d="M146.42 355.515C150.631 351.534 155.814 348.73 161.449 347.382C160.446 346.991 159.486 346.495 158.587 345.902C153.535 347.535 148.9 350.249 145.005 353.856C128.984 368.348 117.679 375.7 100.373 375.7H59.8563C59.5759 375.7 59.307 375.812 59.1087 376.01C58.9105 376.208 58.7991 376.477 58.7991 376.758C58.7991 377.038 58.9105 377.307 59.1087 377.505C59.307 377.703 59.5759 377.815 59.8563 377.815H100.373C118.379 377.88 130.008 370.333 146.42 355.515Z" fill="white"/>
<path d="M256.503 380.661C240.108 398.341 226.185 393.055 217.467 385.541C209.92 379.035 200.925 369.845 185.928 354.035C184 351.954 181.813 350.129 179.422 348.602H174.689C178.4 350.165 181.73 352.512 184.448 355.482C199.51 371.357 208.537 380.596 216.149 387.151C221.144 391.682 227.579 394.303 234.318 394.552C241.263 394.552 249.363 391.412 258.049 382.044C271.793 367.242 287.163 353.319 307.056 348.505H299.72C282.56 354.702 268.816 367.324 256.503 380.661Z" fill="white"/>
<path d="M452.776 259.908C460.291 263.942 466.878 271.7 471.888 281.931H492.919C482.363 270.326 468.236 262.575 452.776 259.908Z" fill="white"/>
<path d="M508.892 311.013C506.207 301.102 501.388 291.898 494.773 284.045H472.88C476.666 292.594 479.249 301.626 480.558 310.883L508.892 311.013Z" fill="white"/>
<path d="M428.834 398.862C420.034 394.129 412.569 384.305 407.299 371.357H384.186C394.978 385.926 410.968 395.777 428.834 398.862V398.862Z" fill="white"/>
<path d="M428.834 259.908C418.604 261.659 408.892 265.665 400.402 271.635V281.931H409.722C414.732 271.7 421.32 263.942 428.834 259.908Z" fill="white"/>
<path d="M408.698 284.045H400.402V310.493H401.118C402.431 301.373 404.981 292.476 408.698 284.045V284.045Z" fill="white"/>
<path d="M475.141 369.243H498.937C504.653 360.947 508.509 351.515 510.242 341.592H481.322C480.469 351.038 478.391 360.333 475.141 369.243Z" fill="white"/>
<path d="M452.776 398.862C470.646 395.774 486.64 385.925 497.441 371.357H474.328C469.107 384.305 461.576 394.129 452.776 398.862Z" fill="white"/>
<path d="M399.915 336.875C399.697 337.77 399.392 338.642 399.004 339.477H400.11C400.045 338.615 399.963 337.753 399.915 336.875Z" fill="white"/>
<path d="M406.469 369.243C403.227 360.33 401.15 351.036 400.289 341.592H397.849C396.438 343.728 394.521 345.482 392.267 346.697C390.014 347.912 387.494 348.55 384.934 348.553H372.914C375.01 355.939 378.307 362.929 382.673 369.243H406.469Z" fill="white"/>
<path d="M481.501 339.477H510.6C511.082 336.137 511.327 332.767 511.332 329.393C511.327 323.915 510.683 318.456 509.412 313.128L480.85 312.981C481.555 318.418 481.908 323.894 481.908 329.377C481.891 332.744 481.761 336.176 481.501 339.477Z" fill="white"/>
<path d="M400.402 312.607V316.023C400.532 314.868 400.663 313.729 400.825 312.607H400.402Z" fill="white"/>
<path d="M402.419 341.592C403.265 351.045 405.365 360.344 408.665 369.243H439.748V341.592H402.419Z" fill="white"/>
<path d="M441.863 399.854C454.24 399.252 465.203 388.192 472.116 371.357H441.863V399.854Z" fill="white"/>
<path d="M402.192 339.477H439.716V312.802L402.907 312.623C402.155 318.181 401.78 323.784 401.785 329.393C401.817 332.743 401.964 336.175 402.192 339.477Z" fill="white"/>
<path d="M441.863 341.592V369.243H472.945C476.243 360.342 478.349 351.045 479.208 341.592H441.863Z" fill="white"/>
<path d="M479.387 339.478C479.647 336.225 479.793 332.809 479.793 329.393C479.797 323.905 479.438 318.422 478.72 312.981L441.863 312.802V339.478H479.387Z" fill="white"/>
<path d="M439.748 310.688V284.045H410.975C407.171 292.46 404.57 301.369 403.249 310.509L439.748 310.688Z" fill="white"/>
<path d="M439.748 399.854V371.357H409.495C416.407 388.192 427.37 399.252 439.748 399.854Z" fill="white"/>
<path d="M441.863 258.915V281.931H469.627C462.715 268.203 452.842 259.452 441.863 258.915Z" fill="white"/>
<path d="M439.748 258.915C428.769 259.452 418.912 268.203 411.983 281.931H439.748V258.915Z" fill="white"/>
<path d="M478.427 310.867C477.11 301.603 474.487 292.573 470.636 284.045H441.863V310.688L478.427 310.867Z" fill="white"/>
<path d="M280.055 152.785C280.051 147.26 277.855 141.963 273.948 138.056C270.042 134.15 264.744 131.953 259.22 131.949H259.057C258.902 131.969 258.744 131.946 258.601 131.883C258.457 131.82 258.334 131.719 258.244 131.591C258.14 131.475 258.062 131.338 258.017 131.189C257.972 131.04 257.961 130.883 257.984 130.729C258.133 129.678 258.209 128.618 258.211 127.557C258.216 124.296 257.485 121.076 256.072 118.137C254.658 115.198 252.6 112.615 250.05 110.583C247.499 108.55 244.523 107.119 241.343 106.397C238.163 105.675 234.861 105.68 231.683 106.412C231.547 106.446 231.406 106.451 231.268 106.426C231.131 106.401 231 106.346 230.886 106.266C230.649 106.12 230.479 105.886 230.414 105.615C229.459 101.249 227.057 97.3334 223.597 94.5037C220.137 91.6741 215.823 90.0965 211.353 90.0268C206.884 89.9571 202.523 91.3995 198.977 94.1198C195.43 96.8402 192.907 100.679 191.816 105.014C191.737 105.295 191.55 105.535 191.296 105.68C191.162 105.737 191.018 105.766 190.873 105.766C190.728 105.766 190.584 105.737 190.45 105.68C188.956 105.178 187.391 104.92 185.814 104.916C182.265 104.927 178.837 106.21 176.151 108.532C173.466 110.853 171.701 114.06 171.176 117.57C171.151 117.726 171.093 117.875 171.006 118.007C170.919 118.139 170.805 118.251 170.672 118.335C170.535 118.416 170.383 118.465 170.225 118.479C170.068 118.493 169.909 118.472 169.761 118.416C166.737 117.3 163.488 116.932 160.292 117.345C157.095 117.758 154.046 118.939 151.406 120.787C148.765 122.634 146.611 125.094 145.128 127.956C143.645 130.818 142.877 133.996 142.89 137.219C142.891 138.013 142.94 138.806 143.037 139.594H156.716C169.728 139.594 178.82 147.629 178.82 159.112V173.425H259.22C264.711 173.421 269.979 171.252 273.88 167.387C277.781 163.523 280 158.275 280.055 152.785V152.785ZM177.731 134.698C177.409 134.698 177.094 134.602 176.827 134.424C176.56 134.245 176.351 133.991 176.228 133.694C176.105 133.396 176.073 133.069 176.135 132.754C176.198 132.438 176.353 132.149 176.581 131.921C176.808 131.694 177.098 131.539 177.413 131.476C177.729 131.413 178.056 131.445 178.353 131.568C178.65 131.692 178.904 131.9 179.083 132.168C179.262 132.435 179.357 132.749 179.357 133.071C179.357 133.503 179.186 133.916 178.881 134.221C178.576 134.526 178.162 134.698 177.731 134.698ZM205.756 151.305C206.077 151.305 206.392 151.4 206.659 151.579C206.927 151.757 207.135 152.011 207.258 152.309C207.382 152.606 207.414 152.933 207.351 153.248C207.288 153.564 207.133 153.854 206.906 154.081C206.678 154.309 206.389 154.464 206.073 154.526C205.758 154.589 205.43 154.557 205.133 154.434C204.836 154.311 204.582 154.102 204.403 153.835C204.225 153.567 204.129 153.253 204.129 152.931C204.129 152.716 204.172 152.503 204.255 152.305C204.337 152.106 204.459 151.926 204.611 151.775C204.764 151.624 204.945 151.504 205.145 151.424C205.344 151.343 205.557 151.302 205.772 151.305H205.756ZM214.571 166.724H187.685C187.405 166.724 187.136 166.613 186.937 166.414C186.739 166.216 186.628 165.947 186.628 165.667C186.628 165.386 186.739 165.117 186.937 164.919C187.136 164.721 187.405 164.61 187.685 164.61H214.588C214.868 164.61 215.137 164.721 215.335 164.919C215.534 165.117 215.645 165.386 215.645 165.667C215.645 165.947 215.534 166.216 215.335 166.414C215.137 166.613 214.868 166.724 214.588 166.724H214.571ZM230.837 166.724H222.509C222.229 166.724 221.96 166.613 221.761 166.414C221.563 166.216 221.452 165.947 221.452 165.667C221.452 165.386 221.563 165.117 221.761 164.919C221.96 164.721 222.229 164.61 222.509 164.61H230.837C231.117 164.61 231.386 164.721 231.584 164.919C231.783 165.117 231.894 165.386 231.894 165.667C231.894 165.947 231.783 166.216 231.584 166.414C231.386 166.613 231.117 166.724 230.837 166.724V166.724ZM237.018 145.969C236.696 145.969 236.381 145.874 236.114 145.695C235.846 145.517 235.638 145.263 235.515 144.965C235.392 144.668 235.36 144.341 235.422 144.026C235.485 143.71 235.64 143.42 235.867 143.193C236.095 142.965 236.385 142.81 236.7 142.748C237.016 142.685 237.343 142.717 237.64 142.84C237.937 142.963 238.191 143.172 238.37 143.439C238.549 143.707 238.644 144.021 238.644 144.343C238.644 144.559 238.601 144.774 238.517 144.973C238.433 145.173 238.311 145.353 238.156 145.505C238.002 145.656 237.819 145.775 237.617 145.855C237.416 145.935 237.201 145.974 236.985 145.969H237.018ZM257.87 164.382C257.548 164.382 257.233 164.286 256.966 164.108C256.699 163.929 256.49 163.675 256.367 163.378C256.244 163.081 256.212 162.754 256.274 162.438C256.337 162.122 256.492 161.833 256.72 161.605C256.947 161.378 257.237 161.223 257.552 161.16C257.868 161.097 258.195 161.129 258.492 161.253C258.789 161.376 259.043 161.584 259.222 161.852C259.401 162.119 259.496 162.434 259.496 162.755C259.496 162.972 259.453 163.186 259.369 163.385C259.286 163.585 259.163 163.766 259.008 163.917C258.854 164.069 258.671 164.188 258.47 164.267C258.268 164.347 258.053 164.386 257.837 164.382H257.87Z" fill="white"/>
<path d="M384.934 191.512C387.462 191.512 389.886 192.516 391.674 194.304C393.461 196.091 394.466 198.516 394.466 201.044V333.085C394.466 335.613 393.461 338.037 391.674 339.825C389.886 341.612 387.462 342.616 384.934 342.616H167.142C164.616 342.612 162.194 341.607 160.407 339.82C158.621 338.033 157.615 335.612 157.611 333.085V213.893H156.7H153.788V333.052C153.793 336.593 155.201 339.987 157.704 342.49C160.208 344.994 163.602 346.402 167.142 346.406H384.934C388.475 346.402 391.869 344.994 394.372 342.49C396.875 339.987 398.284 336.593 398.288 333.052V200.995C398.284 197.454 396.875 194.06 394.372 191.557C391.869 189.053 388.475 187.645 384.934 187.641H178.804V191.463L384.934 191.512Z" fill="#0084FF"/>
<path d="M157.611 333.085C157.615 335.612 158.62 338.034 160.407 339.82C162.194 341.607 164.615 342.612 167.142 342.617H384.934C387.462 342.617 389.886 341.612 391.674 339.825C393.461 338.037 394.466 335.613 394.466 333.085V200.995C394.466 198.467 393.461 196.043 391.674 194.255C389.886 192.468 387.462 191.463 384.934 191.463H178.804V194.31C178.804 205.565 170.135 213.47 157.659 213.828L157.611 333.085ZM191.442 303.71C191.447 299.609 193.078 295.677 195.978 292.777C198.878 289.877 202.81 288.246 206.911 288.242H249.851C251.94 288.146 254.026 288.475 255.985 289.208C257.943 289.941 259.732 291.064 261.244 292.508C262.756 293.952 263.96 295.688 264.782 297.611C265.604 299.533 266.028 301.603 266.028 303.694C266.028 305.785 265.604 307.854 264.782 309.777C263.96 311.699 262.756 313.435 261.244 314.879C259.732 316.324 257.943 317.446 255.985 318.18C254.026 318.913 251.94 319.242 249.851 319.146H206.911C202.816 319.137 198.892 317.509 195.994 314.617C193.096 311.725 191.46 307.804 191.442 303.71V303.71ZM234.871 270.822C234.871 270.541 234.982 270.272 235.18 270.074C235.379 269.876 235.647 269.764 235.928 269.764H313.725C314.005 269.764 314.274 269.876 314.472 270.074C314.671 270.272 314.782 270.541 314.782 270.822C314.782 271.102 314.671 271.371 314.472 271.569C314.274 271.768 314.005 271.879 313.725 271.879H235.928C235.789 271.879 235.652 271.852 235.523 271.798C235.395 271.745 235.278 271.667 235.18 271.569C235.082 271.471 235.004 271.355 234.951 271.226C234.898 271.098 234.871 270.96 234.871 270.822V270.822ZM342.742 319.178H299.802C295.826 318.996 292.074 317.288 289.325 314.41C286.576 311.533 285.043 307.706 285.043 303.726C285.043 299.747 286.576 295.92 289.325 293.042C292.074 290.164 295.826 288.457 299.802 288.274H342.742C344.831 288.178 346.917 288.507 348.876 289.24C350.834 289.974 352.623 291.096 354.135 292.541C355.647 293.985 356.851 295.721 357.673 297.643C358.495 299.566 358.919 301.635 358.919 303.726C358.919 305.817 358.495 307.887 357.673 309.809C356.851 311.732 355.647 313.468 354.135 314.912C352.623 316.356 350.834 317.479 348.876 318.212C346.917 318.946 344.831 319.274 342.742 319.178ZM185.522 217.26H364.115C364.395 217.26 364.664 217.371 364.862 217.57C365.06 217.768 365.172 218.037 365.172 218.317C365.172 218.598 365.06 218.867 364.862 219.065C364.664 219.263 364.395 219.375 364.115 219.375H185.522C185.241 219.375 184.972 219.263 184.774 219.065C184.576 218.867 184.465 218.598 184.465 218.317C184.465 218.037 184.576 217.768 184.774 217.57C184.972 217.371 185.241 217.26 185.522 217.26V217.26ZM185.522 230.077H364.115C364.395 230.077 364.664 230.189 364.862 230.387C365.06 230.585 365.172 230.854 365.172 231.134C365.172 231.415 365.06 231.684 364.862 231.882C364.664 232.08 364.395 232.192 364.115 232.192H185.522C185.241 232.192 184.972 232.08 184.774 231.882C184.576 231.684 184.465 231.415 184.465 231.134C184.465 230.854 184.576 230.585 184.774 230.387C184.972 230.189 185.241 230.077 185.522 230.077ZM185.522 242.894H364.115C364.395 242.894 364.664 243.006 364.862 243.204C365.06 243.402 365.172 243.671 365.172 243.951C365.172 244.232 365.06 244.501 364.862 244.699C364.664 244.897 364.395 245.009 364.115 245.009H185.522C185.241 245.009 184.972 244.897 184.774 244.699C184.576 244.501 184.465 244.232 184.465 243.951C184.465 243.671 184.576 243.402 184.774 243.204C184.972 243.006 185.241 242.894 185.522 242.894ZM185.522 255.711H364.115C364.395 255.711 364.664 255.823 364.862 256.021C365.06 256.219 365.172 256.488 365.172 256.768C365.172 257.049 365.06 257.318 364.862 257.516C364.664 257.714 364.395 257.826 364.115 257.826H185.522C185.241 257.826 184.972 257.714 184.774 257.516C184.576 257.318 184.465 257.049 184.465 256.768C184.465 256.488 184.576 256.219 184.774 256.021C184.972 255.823 185.241 255.711 185.522 255.711V255.711Z" fill="white"/>
<path d="M329.73 173.344C336.164 173.344 342.453 171.436 347.803 167.861C353.152 164.287 357.322 159.206 359.784 153.262C362.246 147.318 362.89 140.777 361.635 134.467C360.38 128.157 357.282 122.36 352.732 117.811C348.183 113.261 342.386 110.163 336.076 108.908C329.766 107.653 323.225 108.297 317.281 110.759C311.337 113.221 306.256 117.391 302.681 122.74C299.107 128.09 297.199 134.379 297.199 140.813C297.199 149.441 300.626 157.715 306.727 163.816C312.828 169.917 321.102 173.344 329.73 173.344V173.344ZM307.462 137.333C308.402 136.403 309.671 135.883 310.992 135.885V135.885C311.658 135.889 312.316 136.027 312.928 136.29C313.539 136.552 314.092 136.934 314.554 137.414L325.127 148.23L342.742 126.532C343.16 126.014 343.678 125.585 344.265 125.269C344.851 124.954 345.495 124.758 346.158 124.694C346.818 124.616 347.488 124.674 348.126 124.864C348.764 125.054 349.356 125.373 349.866 125.8C350.385 126.216 350.815 126.731 351.134 127.314C351.452 127.898 351.651 128.539 351.72 129.2C351.855 130.539 351.458 131.876 350.614 132.925L329.469 158.949C329.016 159.507 328.45 159.962 327.808 160.284C327.166 160.607 326.463 160.789 325.745 160.82H325.517C324.841 160.818 324.172 160.682 323.55 160.42C322.927 160.157 322.363 159.773 321.89 159.291L307.349 144.408C306.877 143.939 306.502 143.382 306.246 142.768C305.99 142.154 305.859 141.495 305.859 140.83C305.859 140.164 305.99 139.506 306.246 138.892C306.502 138.277 306.877 137.72 307.349 137.251L307.462 137.333Z" fill="white"/>
<path d="M308.894 142.944L323.435 157.811C323.71 158.093 324.039 158.317 324.402 158.471C324.765 158.625 325.155 158.704 325.549 158.705H325.712C326.123 158.679 326.524 158.569 326.89 158.381C327.257 158.194 327.581 157.933 327.843 157.615L348.988 131.51C349.475 130.9 349.702 130.123 349.622 129.346C349.587 128.96 349.474 128.585 349.289 128.244C349.104 127.903 348.853 127.603 348.548 127.362C348.249 127.117 347.903 126.933 347.532 126.822C347.161 126.71 346.772 126.673 346.387 126.713C346.002 126.752 345.628 126.867 345.287 127.051C344.946 127.235 344.645 127.484 344.401 127.785L326.037 150.394C325.946 150.511 325.831 150.607 325.699 150.674C325.567 150.742 325.421 150.779 325.273 150.784C325.123 150.79 324.974 150.766 324.835 150.713C324.695 150.66 324.567 150.579 324.46 150.475L313.074 138.813C312.531 138.253 311.788 137.931 311.008 137.918C310.428 137.922 309.862 138.097 309.38 138.421C308.898 138.744 308.522 139.202 308.299 139.738C308.075 140.273 308.014 140.863 308.122 141.433C308.231 142.003 308.505 142.528 308.91 142.944H308.894Z" fill="#0084FF"/>
<path d="M88.4993 308.346C94.8792 308.349 101.117 306.46 106.423 302.918C111.729 299.375 115.866 294.339 118.31 288.446C120.753 282.553 121.394 276.067 120.152 269.809C118.909 263.551 115.838 257.803 111.328 253.29C106.818 248.778 101.071 245.704 94.814 244.458C88.5568 243.213 82.0708 243.85 76.1762 246.291C70.2816 248.732 65.2432 252.866 61.6984 258.17C58.1536 263.475 56.2615 269.712 56.2615 276.091C56.2701 284.64 59.6688 292.837 65.7122 298.883C71.7556 304.93 79.9504 308.333 88.4993 308.346ZM69.2737 264.917C68.7723 264.457 68.3692 263.901 68.0886 263.281C67.8081 262.661 67.6559 261.991 67.6413 261.31C67.6266 260.63 67.7498 259.954 68.0034 259.322C68.257 258.691 68.6358 258.117 69.117 257.636C69.5981 257.155 70.1716 256.776 70.803 256.523C71.4344 256.269 72.1106 256.146 72.7909 256.161C73.4711 256.175 74.1414 256.327 74.7613 256.608C75.3812 256.889 75.9379 257.292 76.3979 257.793L88.4993 269.894L100.601 257.793C101.068 257.321 101.625 256.946 102.237 256.689C102.85 256.431 103.508 256.298 104.172 256.295C104.837 256.292 105.495 256.419 106.111 256.671C106.726 256.923 107.285 257.293 107.757 257.761C108.229 258.228 108.605 258.784 108.862 259.397C109.119 260.01 109.253 260.668 109.256 261.332C109.259 261.997 109.131 262.655 108.879 263.27C108.628 263.886 108.258 264.445 107.79 264.917L95.7048 277.019L107.79 289.12C108.733 290.065 109.263 291.346 109.263 292.682C109.263 294.018 108.733 295.299 107.79 296.244C107.328 296.72 106.774 297.097 106.161 297.351C105.549 297.606 104.891 297.733 104.228 297.724C103.566 297.725 102.91 297.595 102.299 297.341C101.687 297.087 101.132 296.714 100.666 296.244L88.5643 284.143L76.4629 296.244C75.9959 296.713 75.4409 297.086 74.8296 297.34C74.2183 297.594 73.5628 297.724 72.9009 297.724C72.2389 297.724 71.5834 297.594 70.9721 297.34C70.3608 297.086 69.8058 296.713 69.3388 296.244C68.8696 295.777 68.4973 295.222 68.2433 294.611C67.9892 293.999 67.8585 293.344 67.8585 292.682C67.8585 292.02 67.9892 291.365 68.2433 290.753C68.4973 290.142 68.8696 289.587 69.3388 289.12L81.4401 277.019L69.2737 264.917Z" fill="white"/>
<path d="M106.164 294.748C106.438 294.478 106.656 294.157 106.805 293.802C106.954 293.448 107.03 293.067 107.03 292.682C107.03 292.298 106.954 291.917 106.805 291.562C106.656 291.208 106.438 290.886 106.164 290.617L94.0784 278.515L89.9308 282.647L102.032 294.748C102.589 295.279 103.329 295.575 104.098 295.575C104.867 295.575 105.607 295.279 106.164 294.748V294.748Z" fill="#0084FF"/>
<path d="M72.8359 258.427C72.2582 258.429 71.6939 258.602 71.2141 258.924C70.7343 259.245 70.3604 259.702 70.1396 260.236C69.9187 260.77 69.8608 261.357 69.973 261.924C70.0852 262.49 70.3626 263.011 70.7702 263.421L82.8716 275.522L87.003 271.391L74.9016 259.289C74.3544 258.74 73.6115 258.43 72.8359 258.427V258.427Z" fill="#0084FF"/>
<path d="M70.7703 290.617C70.4978 290.887 70.2816 291.209 70.134 291.564C69.9865 291.918 69.9105 292.298 69.9105 292.682C69.9105 293.066 69.9865 293.447 70.134 293.801C70.2816 294.156 70.4978 294.478 70.7703 294.748C71.3269 295.279 72.0667 295.575 72.836 295.575C73.6052 295.575 74.345 295.279 74.9016 294.748L106.164 263.421C106.465 263.157 106.709 262.834 106.881 262.472C107.052 262.11 107.148 261.716 107.161 261.315C107.174 260.915 107.105 260.516 106.958 260.143C106.811 259.77 106.589 259.432 106.305 259.148C106.022 258.865 105.683 258.643 105.31 258.495C104.938 258.348 104.538 258.279 104.138 258.292C103.737 258.306 103.344 258.401 102.982 258.573C102.619 258.744 102.296 258.988 102.032 259.29L70.7703 290.617Z" fill="#0084FF"/>
<path d="M156.7 211.811C168.476 211.811 176.69 204.638 176.69 194.359V159.307C176.69 149.027 168.476 141.854 156.7 141.854H100.568C88.7922 141.854 80.5782 149.027 80.5782 159.307V194.359C80.5782 204.638 88.7109 211.811 100.568 211.811H116.346C116.498 211.813 116.647 211.847 116.785 211.911C116.922 211.976 117.044 212.069 117.143 212.185C117.245 212.302 117.32 212.44 117.362 212.589C117.404 212.738 117.413 212.895 117.387 213.047L114.459 229.914L136.986 212.023C137.178 211.876 137.412 211.796 137.653 211.795L156.7 211.811ZM103.626 159.909H161.628C161.767 159.909 161.904 159.936 162.033 159.989C162.161 160.042 162.278 160.12 162.376 160.218C162.474 160.316 162.552 160.433 162.605 160.561C162.658 160.69 162.685 160.827 162.685 160.966C162.685 161.105 162.658 161.242 162.605 161.37C162.552 161.499 162.474 161.615 162.376 161.713C162.278 161.812 162.161 161.89 162.033 161.943C161.904 161.996 161.767 162.023 161.628 162.023H103.626C103.346 162.023 103.077 161.912 102.879 161.713C102.68 161.515 102.569 161.246 102.569 160.966C102.569 160.686 102.68 160.417 102.879 160.218C103.077 160.02 103.346 159.909 103.626 159.909V159.909ZM95.6399 175.8H161.628C161.767 175.8 161.904 175.827 162.033 175.88C162.161 175.933 162.278 176.011 162.376 176.11C162.474 176.208 162.552 176.324 162.605 176.453C162.658 176.581 162.685 176.718 162.685 176.857C162.685 176.996 162.658 177.133 162.605 177.262C162.552 177.39 162.474 177.507 162.376 177.605C162.278 177.703 162.161 177.781 162.033 177.834C161.904 177.887 161.767 177.914 161.628 177.914H95.6399C95.3595 177.914 95.0906 177.803 94.8923 177.605C94.694 177.406 94.5827 177.137 94.5827 176.857C94.5827 176.577 94.694 176.308 94.8923 176.11C95.0906 175.911 95.3595 175.8 95.6399 175.8V175.8ZM147.982 193.806H95.6399C95.5011 193.806 95.3636 193.778 95.2353 193.725C95.107 193.672 94.9905 193.594 94.8923 193.496C94.7941 193.398 94.7163 193.281 94.6631 193.153C94.61 193.025 94.5827 192.887 94.5827 192.748C94.5827 192.609 94.61 192.472 94.6631 192.344C94.7163 192.215 94.7941 192.099 94.8923 192.001C94.9905 191.903 95.107 191.825 95.2353 191.771C95.3636 191.718 95.5011 191.691 95.6399 191.691H147.982C148.12 191.691 148.258 191.718 148.386 191.771C148.514 191.825 148.631 191.903 148.729 192.001C148.827 192.099 148.905 192.215 148.958 192.344C149.011 192.472 149.039 192.609 149.039 192.748C149.039 192.887 149.011 193.025 148.958 193.153C148.905 193.281 148.827 193.398 148.729 193.496C148.631 193.594 148.514 193.672 148.386 193.725C148.258 193.778 148.12 193.806 147.982 193.806V193.806Z" fill="#FAC659"/>
<path d="M428.395 226.857L437.032 220.806C437.212 220.677 437.428 220.608 437.65 220.611H437.829C438.105 220.662 438.351 220.82 438.512 221.05L450.565 238.454L457.738 233.656L445.701 216.284C445.62 216.17 445.563 216.041 445.532 215.905C445.502 215.769 445.498 215.627 445.523 215.49C445.547 215.352 445.598 215.221 445.673 215.103C445.749 214.985 445.847 214.884 445.961 214.804L454.306 208.932L423.727 192.456L428.395 226.857Z" fill="white"/>
<path d="M68.8509 218.285C67.909 218.301 66.9927 218.594 66.2162 219.127C65.4397 219.661 64.8374 220.411 64.4844 221.284C64.1313 222.158 64.0432 223.115 64.2309 224.039C64.4186 224.962 64.8739 225.809 65.54 226.475C66.2061 227.141 67.0536 227.597 67.9767 227.784C68.8998 227.972 69.8578 227.884 70.7312 227.531C71.6045 227.178 72.3546 226.576 72.888 225.799C73.4214 225.023 73.7143 224.106 73.7304 223.164C73.7415 222.521 73.6228 221.881 73.3814 221.284C73.1401 220.687 72.7811 220.145 72.3258 219.69C71.8705 219.234 71.3281 218.875 70.7312 218.634C70.1342 218.393 69.4947 218.274 68.8509 218.285V218.285Z" fill="#BFBFBF"/>
<path d="M369.222 95.0589C368.277 95.0621 367.354 95.3453 366.57 95.8727C365.785 96.4001 365.175 97.1481 364.816 98.0221C364.456 98.8962 364.364 99.8571 364.55 100.784C364.736 101.71 365.193 102.561 365.863 103.228C366.532 103.895 367.384 104.349 368.311 104.532C369.238 104.715 370.199 104.62 371.072 104.257C371.945 103.895 372.691 103.282 373.215 102.496C373.74 101.71 374.02 100.786 374.02 99.8409C374.02 99.2115 373.896 98.5884 373.655 98.0071C373.413 97.4259 373.06 96.8979 372.614 96.4537C372.168 96.0094 371.639 95.6576 371.057 95.4182C370.475 95.1789 369.851 95.0567 369.222 95.0589V95.0589Z" fill="#BFBFBF"/>
<path d="M519.106 271.781C519.106 270.835 518.826 269.911 518.3 269.124C517.775 268.338 517.028 267.725 516.154 267.363C515.281 267.001 514.319 266.906 513.391 267.091C512.464 267.275 511.612 267.731 510.943 268.4C510.274 269.068 509.819 269.92 509.634 270.848C509.45 271.776 509.544 272.737 509.906 273.611C510.268 274.485 510.881 275.232 511.668 275.757C512.454 276.283 513.379 276.563 514.324 276.563C514.952 276.563 515.574 276.439 516.154 276.199C516.735 275.959 517.262 275.606 517.706 275.162C518.15 274.718 518.502 274.191 518.742 273.611C518.983 273.031 519.106 272.409 519.106 271.781V271.781Z" fill="#BFBFBF"/>
<path d="M364.115 362.704C364.115 361.759 363.834 360.834 363.309 360.048C362.783 359.261 362.036 358.648 361.163 358.286C360.289 357.924 359.327 357.83 358.4 358.014C357.472 358.199 356.62 358.654 355.951 359.323C355.282 359.992 354.827 360.844 354.642 361.771C354.458 362.699 354.553 363.661 354.915 364.534C355.276 365.408 355.889 366.155 356.676 366.68C357.462 367.206 358.387 367.486 359.333 367.486C359.96 367.486 360.582 367.363 361.163 367.122C361.743 366.882 362.27 366.53 362.714 366.086C363.158 365.642 363.51 365.115 363.751 364.534C363.991 363.954 364.115 363.332 364.115 362.704Z" fill="#BFBFBF"/>
<path d="M478.118 192.391C478.121 191.44 477.842 190.51 477.316 189.719C476.79 188.927 476.041 188.31 475.163 187.945C474.286 187.579 473.32 187.483 472.388 187.668C471.455 187.852 470.599 188.31 469.927 188.982C469.255 189.654 468.797 190.51 468.613 191.442C468.428 192.375 468.525 193.341 468.89 194.218C469.255 195.096 469.872 195.845 470.664 196.371C471.456 196.897 472.385 197.176 473.336 197.173C474.603 197.168 475.817 196.663 476.712 195.767C477.608 194.871 478.114 193.658 478.118 192.391Z" fill="#BFBFBF"/>
<path d="M369.222 168.985C369.238 169.93 369.533 170.85 370.07 171.628C370.607 172.406 371.361 173.009 372.24 173.359C373.118 173.71 374.08 173.794 375.005 173.599C375.93 173.405 376.778 172.942 377.441 172.268C378.104 171.594 378.553 170.739 378.731 169.81C378.91 168.882 378.81 167.921 378.445 167.049C378.079 166.177 377.464 165.432 376.677 164.909C375.89 164.385 374.966 164.105 374.02 164.105C373.383 164.105 372.752 164.232 372.165 164.478C371.577 164.724 371.045 165.085 370.598 165.539C370.151 165.993 369.8 166.532 369.563 167.124C369.327 167.715 369.211 168.348 369.222 168.985Z" fill="#BFBFBF"/>
<path d="M264.262 89.0572C264.246 88.1112 263.951 87.191 263.413 86.4123C262.875 85.6337 262.119 85.0314 261.24 84.6812C260.361 84.3309 259.399 84.2484 258.473 84.4439C257.547 84.6395 256.7 85.1044 256.037 85.7802C255.375 86.4559 254.927 87.3124 254.751 88.242C254.574 89.1715 254.676 90.1326 255.044 91.0043C255.412 91.8761 256.029 92.6196 256.818 93.1414C257.608 93.6632 258.534 93.9399 259.48 93.9368C260.116 93.9369 260.746 93.8101 261.333 93.5637C261.919 93.3173 262.451 92.9563 262.896 92.5019C263.342 92.0475 263.692 91.5087 263.926 90.9173C264.161 90.3258 264.275 89.6934 264.262 89.0572V89.0572Z" fill="#BFBFBF"/>
<path d="M172.965 79.5094C173.914 79.5094 174.842 79.228 175.631 78.7007C176.42 78.1735 177.035 77.4241 177.398 76.5473C177.761 75.6706 177.856 74.7058 177.671 73.775C177.486 72.8443 177.029 71.9893 176.358 71.3183C175.687 70.6472 174.832 70.1902 173.901 70.005C172.97 69.8199 172.006 69.9149 171.129 70.2781C170.252 70.6413 169.503 71.2563 168.975 72.0453C168.448 72.8344 168.167 73.7621 168.167 74.7111C168.167 75.9837 168.672 77.2041 169.572 78.104C170.472 79.0038 171.692 79.5094 172.965 79.5094Z" fill="#BFBFBF"/>
<path d="M62.2473 153.175C61.3059 153.194 60.3911 153.491 59.6176 154.028C58.8442 154.565 58.2465 155.318 57.8995 156.193C57.5525 157.069 57.4716 158.027 57.667 158.948C57.8623 159.869 58.3253 160.712 58.9978 161.371C59.6703 162.03 60.5224 162.476 61.4473 162.653C62.3721 162.83 63.3285 162.729 64.1967 162.365C65.0648 162 65.806 161.387 66.3272 160.603C66.8485 159.819 67.1266 158.898 67.1268 157.957C67.127 157.321 67.0001 156.691 66.7537 156.104C66.5073 155.517 66.1463 154.986 65.6919 154.54C65.2375 154.095 64.6987 153.745 64.1072 153.51C63.5157 153.276 62.8834 153.162 62.2473 153.175Z" fill="#BFBFBF"/>
<path d="M33.6203 294.081C34.5707 294.084 35.5006 293.805 36.2921 293.279C37.0837 292.753 37.7012 292.004 38.0664 291.126C38.4316 290.249 38.528 289.283 38.3434 288.351C38.1587 287.418 37.7014 286.562 37.0294 285.89C36.3574 285.218 35.5009 284.76 34.5686 284.576C33.6363 284.391 32.6702 284.487 31.7928 284.853C30.9154 285.218 30.1662 285.835 29.6402 286.627C29.1142 287.419 28.8351 288.348 28.8383 289.299C28.8426 290.566 29.3478 291.78 30.2436 292.675C31.1395 293.571 32.3533 294.077 33.6203 294.081V294.081Z" fill="#BFBFBF"/>
<path d="M113.044 109.259C112.849 109.459 112.74 109.727 112.74 110.007C112.74 110.286 112.849 110.555 113.044 110.755L118.053 115.765C118.151 115.863 118.268 115.941 118.396 115.994C118.525 116.048 118.662 116.075 118.801 116.075C118.94 116.075 119.078 116.048 119.206 115.994C119.335 115.941 119.451 115.863 119.55 115.765C119.744 115.564 119.853 115.296 119.853 115.017C119.853 114.737 119.744 114.469 119.55 114.268L114.54 109.259C114.443 109.158 114.327 109.078 114.198 109.024C114.07 108.97 113.931 108.941 113.792 108.941C113.652 108.941 113.514 108.97 113.385 109.024C113.257 109.078 113.141 109.158 113.044 109.259V109.259Z" fill="#8A7EEE"/>
<path d="M125.568 120.27C125.368 120.075 125.099 119.967 124.82 119.967C124.54 119.967 124.272 120.075 124.071 120.27C123.971 120.367 123.891 120.484 123.837 120.612C123.782 120.741 123.754 120.879 123.754 121.018C123.754 121.158 123.782 121.296 123.837 121.425C123.891 121.553 123.971 121.67 124.071 121.767L129.081 126.776C129.178 126.877 129.294 126.956 129.423 127.009C129.552 127.062 129.69 127.088 129.829 127.085C129.968 127.086 130.106 127.058 130.234 127.005C130.363 126.952 130.479 126.874 130.578 126.776C130.772 126.576 130.881 126.308 130.881 126.028C130.881 125.749 130.772 125.48 130.578 125.28L125.568 120.27Z" fill="#8A7EEE"/>
<path d="M113.044 126.776C113.142 126.875 113.259 126.952 113.387 127.005C113.515 127.058 113.653 127.086 113.792 127.086C113.931 127.088 114.069 127.061 114.198 127.008C114.326 126.955 114.443 126.876 114.54 126.776L119.55 121.767C119.648 121.669 119.726 121.552 119.779 121.424C119.832 121.295 119.86 121.158 119.86 121.019C119.86 120.88 119.832 120.742 119.779 120.614C119.726 120.485 119.648 120.369 119.55 120.27C119.451 120.172 119.335 120.094 119.206 120.041C119.078 119.988 118.94 119.96 118.801 119.96C118.663 119.96 118.525 119.988 118.397 120.041C118.268 120.094 118.152 120.172 118.053 120.27L113.044 125.28C112.849 125.48 112.74 125.749 112.74 126.028C112.74 126.308 112.849 126.576 113.044 126.776V126.776Z" fill="#8A7EEE"/>
<path d="M130.561 109.259C130.464 109.158 130.348 109.078 130.22 109.024C130.091 108.97 129.953 108.941 129.813 108.941C129.674 108.941 129.535 108.97 129.407 109.024C129.278 109.078 129.162 109.158 129.065 109.259L124.055 114.268C123.955 114.365 123.875 114.482 123.821 114.61C123.766 114.739 123.738 114.877 123.738 115.017C123.738 115.156 123.766 115.294 123.821 115.423C123.875 115.551 123.955 115.668 124.055 115.765C124.255 115.961 124.523 116.072 124.803 116.074C125.082 116.066 125.349 115.956 125.552 115.765L130.561 110.755C130.756 110.555 130.865 110.286 130.865 110.007C130.865 109.727 130.756 109.459 130.561 109.259V109.259Z" fill="#8A7EEE"/>
<path d="M299.493 85.0721C299.692 85.2688 299.961 85.3797 300.241 85.3811C300.52 85.3733 300.786 85.2633 300.989 85.0721C301.184 84.8717 301.293 84.6034 301.293 84.324C301.293 84.0445 301.184 83.7761 300.989 83.5757L295.979 78.566C295.781 78.3676 295.512 78.2561 295.231 78.2561C294.95 78.2561 294.681 78.3676 294.483 78.566C294.284 78.7645 294.173 79.0336 294.173 79.3142C294.173 79.5949 294.284 79.864 294.483 80.0625L299.493 85.0721Z" fill="#8A7EEE"/>
<path d="M305.494 91.0739L310.504 96.0836C310.602 96.1818 310.719 96.2595 310.848 96.3126C310.976 96.3656 311.113 96.3928 311.252 96.3927C311.392 96.3956 311.53 96.3697 311.659 96.3165C311.788 96.2633 311.904 96.184 312.001 96.0836C312.101 95.9866 312.181 95.8703 312.235 95.7417C312.29 95.6132 312.318 95.475 312.318 95.3354C312.318 95.1958 312.29 95.0576 312.235 94.9291C312.181 94.8005 312.101 94.6843 312.001 94.5872L306.991 89.5775C306.792 89.3791 306.523 89.2676 306.243 89.2676C305.962 89.2676 305.693 89.3791 305.494 89.5775C305.296 89.776 305.185 90.0451 305.185 90.3258C305.185 90.6064 305.296 90.8755 305.494 91.0739V91.0739Z" fill="#8A7EEE"/>
<path d="M294.483 96.0836C294.579 96.184 294.696 96.2633 294.825 96.3165C294.953 96.3697 295.092 96.3956 295.231 96.3927C295.37 96.3928 295.508 96.3656 295.636 96.3126C295.764 96.2595 295.881 96.1818 295.979 96.0836L300.989 91.0739C301.087 90.9756 301.165 90.859 301.218 90.7306C301.272 90.6022 301.299 90.4647 301.299 90.3258C301.299 90.1868 301.272 90.0492 301.218 89.9208C301.165 89.7924 301.087 89.6758 300.989 89.5775C300.891 89.4793 300.774 89.4014 300.646 89.3482C300.517 89.295 300.38 89.2676 300.241 89.2676C300.102 89.2676 299.964 89.295 299.836 89.3482C299.707 89.4014 299.591 89.4793 299.493 89.5775L294.483 94.5872C294.383 94.6843 294.303 94.8005 294.248 94.9291C294.194 95.0576 294.166 95.1958 294.166 95.3354C294.166 95.475 294.194 95.6132 294.248 95.7417C294.303 95.8703 294.383 95.9866 294.483 96.0836V96.0836Z" fill="#8A7EEE"/>
<path d="M305.495 85.0721C305.698 85.2633 305.964 85.3733 306.243 85.3811C306.523 85.3797 306.791 85.2688 306.991 85.0721L312.001 80.0625C312.199 79.864 312.311 79.5949 312.311 79.3142C312.311 79.0336 312.199 78.7645 312.001 78.566C311.802 78.3676 311.533 78.2561 311.252 78.2561C310.972 78.2561 310.703 78.3676 310.504 78.566L305.495 83.5757C305.3 83.7761 305.191 84.0445 305.191 84.324C305.191 84.6034 305.3 84.8717 305.495 85.0721V85.0721Z" fill="#8A7EEE"/>
<path d="M490.626 158.705C490.724 158.803 490.84 158.881 490.969 158.935C491.097 158.988 491.235 159.015 491.374 159.015C491.513 159.015 491.65 158.988 491.779 158.935C491.907 158.881 492.024 158.803 492.122 158.705C492.317 158.505 492.426 158.236 492.426 157.957C492.426 157.677 492.317 157.409 492.122 157.209L487.112 152.199C486.914 152 486.645 151.889 486.364 151.889C486.084 151.889 485.814 152 485.616 152.199C485.418 152.397 485.306 152.666 485.306 152.947C485.306 153.228 485.418 153.497 485.616 153.695L490.626 158.705Z" fill="#8A7EEE"/>
<path d="M496.644 164.723L501.654 169.733C501.853 169.93 502.122 170.04 502.402 170.042C502.681 170.034 502.947 169.924 503.15 169.733C503.345 169.532 503.454 169.264 503.454 168.985C503.454 168.705 503.345 168.437 503.15 168.236L498.157 163.227C498.058 163.128 497.942 163.05 497.813 162.997C497.685 162.944 497.547 162.917 497.408 162.917C497.269 162.917 497.132 162.944 497.003 162.997C496.875 163.05 496.758 163.128 496.66 163.227C496.562 163.325 496.484 163.442 496.431 163.57C496.378 163.698 496.35 163.836 496.35 163.975C496.35 164.114 496.378 164.251 496.431 164.38C496.484 164.508 496.562 164.625 496.66 164.723H496.644Z" fill="#8A7EEE"/>
<path d="M485.616 169.733C485.819 169.924 486.085 170.034 486.364 170.042C486.644 170.037 486.911 169.927 487.112 169.733L492.122 164.723C492.317 164.523 492.426 164.255 492.426 163.975C492.426 163.696 492.317 163.427 492.122 163.227C492.025 163.127 491.909 163.047 491.78 162.992C491.652 162.938 491.514 162.91 491.374 162.91C491.234 162.91 491.096 162.938 490.968 162.992C490.839 163.047 490.723 163.127 490.626 163.227L485.616 168.237C485.421 168.437 485.312 168.705 485.312 168.985C485.312 169.264 485.421 169.533 485.616 169.733V169.733Z" fill="#8A7EEE"/>
<path d="M497.392 159.014C497.534 159.016 497.674 158.99 497.806 158.937C497.937 158.884 498.056 158.805 498.157 158.705L503.166 153.695C503.365 153.497 503.476 153.228 503.476 152.947C503.476 152.666 503.365 152.397 503.166 152.199C502.968 152 502.699 151.889 502.418 151.889C502.137 151.889 501.868 152 501.67 152.199L496.66 157.209C496.512 157.356 496.411 157.545 496.37 157.75C496.329 157.955 496.35 158.168 496.43 158.361C496.511 158.555 496.646 158.72 496.82 158.836C496.994 158.952 497.199 159.014 497.408 159.014H497.392Z" fill="#8A7EEE"/>
<path d="M490.772 215.015C490.577 215.216 490.468 215.484 490.468 215.764C490.468 216.043 490.577 216.311 490.772 216.512L495.782 221.521C495.88 221.62 495.997 221.697 496.125 221.75C496.254 221.803 496.391 221.831 496.53 221.831C496.669 221.833 496.808 221.808 496.936 221.754C497.065 221.701 497.182 221.622 497.278 221.521C497.379 221.424 497.458 221.308 497.513 221.18C497.567 221.051 497.595 220.913 497.595 220.773C497.595 220.634 497.567 220.495 497.513 220.367C497.458 220.238 497.379 220.122 497.278 220.025L492.268 215.015C492.068 214.821 491.8 214.712 491.52 214.712C491.241 214.712 490.972 214.821 490.772 215.015V215.015Z" fill="#8A7EEE"/>
<path d="M508.306 232.55C508.501 232.349 508.61 232.081 508.61 231.801C508.61 231.522 508.501 231.254 508.306 231.053L503.296 226.044C503.098 225.845 502.829 225.734 502.548 225.734C502.268 225.734 501.998 225.845 501.8 226.044C501.602 226.242 501.49 226.511 501.49 226.792C501.49 227.072 501.602 227.342 501.8 227.54L506.81 232.55C506.908 232.648 507.025 232.726 507.153 232.779C507.281 232.833 507.419 232.86 507.558 232.86C507.697 232.86 507.835 232.833 507.963 232.779C508.091 232.726 508.208 232.648 508.306 232.55V232.55Z" fill="#8A7EEE"/>
<path d="M497.278 226.043C497.078 225.849 496.809 225.74 496.53 225.74C496.251 225.74 495.982 225.849 495.782 226.043L490.772 231.053C490.577 231.253 490.468 231.522 490.468 231.801C490.468 232.081 490.577 232.349 490.772 232.549C490.87 232.648 490.987 232.725 491.115 232.778C491.244 232.831 491.381 232.859 491.52 232.858C491.66 232.861 491.798 232.835 491.927 232.782C492.056 232.729 492.172 232.65 492.268 232.549L497.278 227.54C497.379 227.443 497.458 227.326 497.513 227.198C497.567 227.069 497.595 226.931 497.595 226.791C497.595 226.652 497.567 226.514 497.513 226.385C497.458 226.257 497.379 226.14 497.278 226.043V226.043Z" fill="#8A7EEE"/>
<path d="M508.306 215.015C508.106 214.821 507.837 214.712 507.558 214.712C507.279 214.712 507.01 214.821 506.81 215.015L501.8 220.025C501.605 220.225 501.496 220.494 501.496 220.773C501.496 221.053 501.605 221.321 501.8 221.521C501.897 221.621 502.014 221.7 502.142 221.753C502.271 221.806 502.409 221.833 502.548 221.831C502.687 221.831 502.825 221.803 502.953 221.75C503.081 221.697 503.198 221.62 503.296 221.521L508.306 216.512C508.501 216.311 508.61 216.043 508.61 215.764C508.61 215.484 508.501 215.216 508.306 215.015Z" fill="#8A7EEE"/>
<path d="M515.073 376.969L510.063 371.959C509.965 371.861 509.848 371.783 509.72 371.73C509.591 371.677 509.454 371.649 509.315 371.649C509.176 371.649 509.038 371.677 508.91 371.73C508.781 371.783 508.665 371.861 508.566 371.959C508.468 372.057 508.39 372.174 508.337 372.302C508.284 372.431 508.257 372.568 508.257 372.707C508.257 372.846 508.284 372.984 508.337 373.112C508.39 373.241 508.468 373.357 508.566 373.456L513.576 378.465C513.674 378.564 513.791 378.642 513.919 378.695C514.048 378.748 514.185 378.776 514.324 378.776C514.463 378.776 514.601 378.748 514.729 378.695C514.858 378.642 514.974 378.564 515.073 378.465C515.267 378.265 515.376 377.996 515.376 377.717C515.376 377.438 515.267 377.169 515.073 376.969V376.969Z" fill="#8A7EEE"/>
<path d="M521.091 382.987C520.89 382.793 520.622 382.684 520.343 382.684C520.063 382.684 519.795 382.793 519.594 382.987C519.494 383.084 519.414 383.201 519.36 383.329C519.305 383.458 519.277 383.596 519.277 383.735C519.277 383.875 519.305 384.013 519.36 384.142C519.414 384.27 519.494 384.387 519.594 384.484L524.604 389.493C524.701 389.594 524.817 389.673 524.946 389.726C525.074 389.779 525.213 389.805 525.352 389.802C525.491 389.803 525.629 389.775 525.757 389.722C525.885 389.669 526.002 389.592 526.1 389.493C526.295 389.293 526.404 389.025 526.404 388.745C526.404 388.466 526.295 388.197 526.1 387.997L521.091 382.987Z" fill="#8A7EEE"/>
<path d="M513.576 382.987L508.566 388.046C508.372 388.246 508.263 388.514 508.263 388.794C508.263 389.073 508.372 389.342 508.566 389.542C508.665 389.64 508.781 389.718 508.91 389.772C509.038 389.825 509.176 389.852 509.315 389.852C509.454 389.852 509.591 389.825 509.72 389.772C509.848 389.718 509.965 389.64 510.063 389.542L515.072 384.532C515.271 384.334 515.382 384.065 515.382 383.784C515.382 383.504 515.271 383.234 515.072 383.036C514.874 382.837 514.605 382.726 514.324 382.726C514.044 382.726 513.775 382.837 513.576 383.036V382.987Z" fill="#8A7EEE"/>
<path d="M526.1 371.959C525.9 371.764 525.632 371.655 525.352 371.655C525.073 371.655 524.804 371.764 524.604 371.959L519.594 376.969C519.494 377.066 519.414 377.182 519.36 377.311C519.305 377.439 519.277 377.577 519.277 377.717C519.277 377.857 519.305 377.995 519.36 378.123C519.414 378.252 519.494 378.368 519.594 378.465C519.691 378.565 519.807 378.645 519.936 378.698C520.065 378.751 520.203 378.777 520.343 378.774C520.481 378.774 520.619 378.747 520.747 378.694C520.876 378.641 520.992 378.563 521.091 378.465L526.1 373.455C526.295 373.255 526.404 372.987 526.404 372.707C526.404 372.428 526.295 372.159 526.1 371.959V371.959Z" fill="#8A7EEE"/>
<path d="M128.935 241.658C129.033 241.756 129.15 241.834 129.278 241.887C129.407 241.94 129.544 241.967 129.683 241.967C129.892 241.967 130.097 241.905 130.271 241.789C130.445 241.673 130.581 241.508 130.661 241.314C130.741 241.121 130.762 240.908 130.721 240.703C130.68 240.498 130.579 240.309 130.431 240.161L125.356 235.152C125.158 234.953 124.889 234.842 124.608 234.842C124.328 234.842 124.059 234.953 123.86 235.152C123.662 235.35 123.55 235.619 123.55 235.9C123.55 236.181 123.662 236.45 123.86 236.648L128.935 241.658Z" fill="#8A7EEE"/>
<path d="M134.888 247.643L139.898 252.653C140.097 252.85 140.366 252.961 140.646 252.962C140.925 252.954 141.191 252.844 141.394 252.653C141.589 252.453 141.698 252.184 141.698 251.905C141.698 251.626 141.589 251.357 141.394 251.157L136.384 246.147C136.286 246.049 136.17 245.971 136.041 245.918C135.913 245.864 135.775 245.837 135.636 245.837C135.497 245.837 135.36 245.864 135.231 245.918C135.103 245.971 134.986 246.049 134.888 246.147C134.79 246.245 134.712 246.362 134.659 246.49C134.605 246.619 134.578 246.756 134.578 246.895C134.578 247.034 134.605 247.172 134.659 247.3C134.712 247.429 134.79 247.545 134.888 247.643V247.643Z" fill="#8A7EEE"/>
<path d="M123.86 252.653C124.063 252.844 124.329 252.954 124.608 252.962C124.888 252.957 125.155 252.847 125.357 252.653L130.366 247.643C130.565 247.445 130.676 247.176 130.676 246.895C130.676 246.615 130.565 246.346 130.366 246.147C130.168 245.949 129.899 245.837 129.618 245.837C129.337 245.837 129.068 245.949 128.87 246.147L123.86 251.157C123.665 251.357 123.556 251.626 123.556 251.905C123.556 252.184 123.665 252.453 123.86 252.653V252.653Z" fill="#8A7EEE"/>
<path d="M135.636 241.935C135.775 241.935 135.913 241.908 136.041 241.855C136.169 241.802 136.286 241.724 136.384 241.626L141.394 236.616C141.593 236.417 141.704 236.148 141.704 235.868C141.704 235.587 141.593 235.318 141.394 235.119C141.196 234.921 140.927 234.81 140.646 234.81C140.365 234.81 140.096 234.921 139.898 235.119L134.888 240.129C134.788 240.226 134.708 240.343 134.653 240.471C134.599 240.6 134.571 240.738 134.571 240.877C134.571 241.017 134.599 241.155 134.653 241.284C134.708 241.412 134.788 241.528 134.888 241.626C134.985 241.726 135.101 241.805 135.23 241.858C135.359 241.912 135.497 241.938 135.636 241.935V241.935Z" fill="#8A7EEE"/>
<path d="M14.4436 324.822C14.2433 324.627 13.9748 324.519 13.6954 324.519C13.416 324.519 13.1476 324.627 12.9472 324.822C12.8469 324.919 12.7671 325.036 12.7126 325.164C12.6581 325.293 12.63 325.431 12.63 325.57C12.63 325.71 12.6581 325.848 12.7126 325.977C12.7671 326.105 12.8469 326.222 12.9472 326.319L17.9569 331.328C18.0535 331.429 18.1699 331.508 18.2987 331.561C18.4274 331.614 18.5658 331.64 18.7051 331.637C18.844 331.638 18.9816 331.61 19.11 331.557C19.2384 331.504 19.355 331.426 19.4533 331.328C19.6481 331.128 19.757 330.86 19.757 330.58C19.757 330.301 19.6481 330.032 19.4533 329.832L14.4436 324.822Z" fill="#8A7EEE"/>
<path d="M29.7166 342.666C29.8559 342.668 29.9943 342.643 30.1231 342.589C30.2519 342.536 30.3682 342.457 30.4648 342.356C30.5652 342.259 30.645 342.143 30.6995 342.015C30.754 341.886 30.782 341.748 30.782 341.608C30.782 341.469 30.754 341.331 30.6995 341.202C30.645 341.073 30.5652 340.957 30.4648 340.86L25.4551 335.85C25.3569 335.752 25.2402 335.674 25.1118 335.621C24.9835 335.568 24.8459 335.541 24.7069 335.541C24.568 335.541 24.4304 335.568 24.302 335.621C24.1736 335.674 24.057 335.752 23.9587 335.85C23.8605 335.949 23.7825 336.065 23.7293 336.194C23.6762 336.322 23.6488 336.46 23.6488 336.599C23.6488 336.738 23.6762 336.875 23.7293 337.004C23.7825 337.132 23.8605 337.249 23.9587 337.347L28.9684 342.356C29.0667 342.455 29.1834 342.532 29.3118 342.586C29.4402 342.639 29.5777 342.666 29.7166 342.666V342.666Z" fill="#8A7EEE"/>
<path d="M17.957 335.85L12.9472 340.876C12.7991 341.024 12.6982 341.213 12.6573 341.418C12.6164 341.623 12.6374 341.836 12.7175 342.029C12.7976 342.223 12.9333 342.388 13.1074 342.504C13.2815 342.62 13.4862 342.682 13.6954 342.682C13.8343 342.682 13.9719 342.655 14.1003 342.602C14.2287 342.549 14.3454 342.471 14.4437 342.373L19.4534 337.363C19.5516 337.265 19.6296 337.148 19.6827 337.02C19.7359 336.891 19.7633 336.754 19.7633 336.615C19.7633 336.476 19.7359 336.338 19.6827 336.21C19.6296 336.081 19.5516 335.965 19.4534 335.866C19.3551 335.768 19.2385 335.69 19.1101 335.637C18.9817 335.584 18.8441 335.557 18.7052 335.557C18.5662 335.557 18.4286 335.584 18.3002 335.637C18.1718 335.69 18.0552 335.768 17.957 335.866V335.85Z" fill="#8A7EEE"/>
<path d="M23.9588 331.328C24.0571 331.426 24.1738 331.504 24.3022 331.557C24.4306 331.61 24.5681 331.638 24.707 331.637C24.8463 331.64 24.9847 331.614 25.1135 331.561C25.2423 331.508 25.3587 331.429 25.4553 331.328L30.465 326.319C30.5653 326.222 30.6451 326.105 30.6996 325.977C30.7541 325.848 30.7822 325.71 30.7822 325.57C30.7822 325.431 30.7541 325.293 30.6996 325.164C30.6451 325.036 30.5653 324.919 30.465 324.822C30.2646 324.627 29.9962 324.519 29.7168 324.519C29.4373 324.519 29.1689 324.627 28.9686 324.822L23.9588 329.832C23.7641 330.032 23.6552 330.301 23.6552 330.58C23.6552 330.86 23.7641 331.128 23.9588 331.328V331.328Z" fill="#8A7EEE"/>
<path d="M381.226 136.275H390.903C391.15 136.275 391.39 136.361 391.58 136.518C391.77 136.676 391.899 136.895 391.944 137.137C392.923 142.501 395.03 147.596 398.125 152.085C398.267 152.288 398.334 152.534 398.313 152.781C398.292 153.027 398.185 153.259 398.011 153.435L391.164 160.266L400.061 169.164L406.892 162.316C407.068 162.142 407.3 162.035 407.547 162.014C407.793 161.994 408.039 162.06 408.242 162.202C412.731 165.297 417.826 167.404 423.19 168.383C423.433 168.428 423.652 168.557 423.809 168.748C423.967 168.938 424.053 169.177 424.052 169.424V179.102H436.625V169.424C436.625 169.177 436.711 168.938 436.868 168.748C437.026 168.557 437.245 168.428 437.487 168.383C442.851 167.404 447.946 165.297 452.435 162.202C452.638 162.06 452.884 161.994 453.131 162.014C453.377 162.035 453.609 162.142 453.785 162.316L460.616 169.164L469.497 160.266L462.666 153.435C462.492 153.259 462.385 153.027 462.364 152.781C462.343 152.534 462.41 152.288 462.552 152.085C465.647 147.596 467.754 142.501 468.733 137.137C468.778 136.895 468.907 136.676 469.098 136.518C469.288 136.361 469.527 136.275 469.774 136.275H479.435V123.702H469.774C469.527 123.703 469.288 123.617 469.098 123.459C468.907 123.302 468.778 123.083 468.733 122.84C467.754 117.476 465.647 112.381 462.552 107.892C462.41 107.69 462.343 107.443 462.364 107.197C462.385 106.95 462.492 106.718 462.666 106.542L469.497 99.7108L460.616 90.83L453.785 97.6613C453.609 97.8354 453.377 97.9421 453.131 97.9629C452.884 97.9837 452.638 97.9173 452.435 97.7752C447.946 94.6801 442.851 92.5734 437.487 91.5944C437.245 91.5489 437.026 91.4198 436.868 91.2297C436.711 91.0396 436.625 90.8003 436.625 90.5534V80.8918H424.052V90.5534C424.053 90.8003 423.967 91.0396 423.809 91.2297C423.652 91.4198 423.433 91.5489 423.19 91.5944C417.826 92.5734 412.731 94.6801 408.242 97.7752C408.039 97.9173 407.793 97.9837 407.547 97.9629C407.3 97.9421 407.068 97.8354 406.892 97.6613L400.061 90.83L391.164 99.7108L398.011 106.542C398.185 106.718 398.292 106.95 398.313 107.197C398.334 107.443 398.267 107.69 398.125 107.892C395.03 112.381 392.923 117.476 391.944 122.84C391.899 123.083 391.77 123.302 391.58 123.459C391.39 123.617 391.15 123.703 390.903 123.702H381.226V136.275ZM430.33 104.899C435.295 104.896 440.149 106.365 444.278 109.121C448.408 111.877 451.627 115.795 453.529 120.381C455.431 124.967 455.93 130.014 454.964 134.883C453.997 139.753 451.608 144.226 448.099 147.738C444.59 151.249 440.118 153.641 435.249 154.611C430.38 155.58 425.333 155.084 420.746 153.185C416.159 151.286 412.239 148.069 409.48 143.942C406.722 139.814 405.249 134.961 405.249 129.997C405.258 123.346 407.903 116.97 412.604 112.266C417.305 107.561 423.68 104.912 430.33 104.899Z" fill="#0084FF"/>
<path d="M430.33 152.963C434.877 152.967 439.323 151.621 443.105 149.097C446.887 146.573 449.835 142.984 451.577 138.783C453.318 134.583 453.775 129.961 452.889 125.501C452.002 121.041 449.813 116.945 446.598 113.729C443.383 110.514 439.286 108.325 434.826 107.439C430.367 106.552 425.744 107.009 421.544 108.75C417.344 110.492 413.754 113.44 411.23 117.222C408.706 121.004 407.361 125.45 407.364 129.997C407.372 136.085 409.795 141.922 414.1 146.227C418.405 150.532 424.242 152.955 430.33 152.963V152.963ZM430.33 117.473C432.807 117.473 435.229 118.207 437.288 119.583C439.348 120.96 440.953 122.916 441.901 125.204C442.849 127.493 443.097 130.011 442.614 132.44C442.131 134.87 440.938 137.101 439.186 138.853C437.435 140.604 435.203 141.797 432.774 142.281C430.344 142.764 427.826 142.516 425.538 141.568C423.249 140.62 421.293 139.015 419.917 136.955C418.541 134.895 417.806 132.474 417.806 129.997C417.806 126.675 419.126 123.49 421.474 121.141C423.823 118.792 427.009 117.473 430.33 117.473V117.473Z" fill="white"/>
<path d="M430.33 140.407C432.389 140.407 434.402 139.796 436.114 138.652C437.826 137.508 439.16 135.883 439.948 133.981C440.736 132.078 440.942 129.985 440.54 127.966C440.138 125.947 439.147 124.092 437.691 122.636C436.235 121.18 434.38 120.189 432.361 119.787C430.342 119.386 428.249 119.592 426.347 120.38C424.445 121.167 422.819 122.502 421.675 124.214C420.531 125.925 419.921 127.938 419.921 129.997C419.925 132.756 421.023 135.402 422.974 137.353C424.926 139.304 427.571 140.402 430.33 140.407V140.407Z" fill="#0084FF"/>
<path d="M103.219 343.837C97.4778 337.835 92.0127 334.419 84.5469 334.24H55.2694C54.989 334.24 54.7201 334.351 54.5218 334.55C54.3236 334.748 54.2122 335.017 54.2122 335.297C54.2122 335.578 54.3236 335.847 54.5218 336.045C54.7201 336.243 54.989 336.354 55.2694 336.354H84.5469C89.9307 336.354 95.2007 338.876 100.259 343.837C101.727 345.288 103.102 346.831 104.374 348.456C104.471 348.584 104.597 348.687 104.741 348.758C104.885 348.829 105.043 348.864 105.204 348.862C108.164 348.244 103.951 344.943 103.219 343.837Z" fill="#233856"/>
<path d="M531.728 399.903H458.177C475.203 395.677 490.132 385.448 500.222 371.097C500.357 370.982 500.463 370.837 500.531 370.674C506.389 362.177 510.375 352.532 512.225 342.379C514.076 332.226 513.749 321.795 511.266 311.778C511.274 311.74 511.274 311.701 511.266 311.664C508.566 300.946 503.441 290.991 496.286 282.565C496.209 282.394 496.085 282.247 495.928 282.142C473.498 254.784 429.859 248.408 400.419 269.13V200.995C400.414 196.894 398.783 192.962 395.883 190.062C392.983 187.162 389.051 185.531 384.95 185.527H178.804V175.767H259.22C289.099 174.613 289.912 132.242 260.179 129.883C260.507 126.223 259.986 122.538 258.657 119.112C257.329 115.686 255.228 112.613 252.518 110.132C249.808 107.65 246.563 105.827 243.034 104.804C239.505 103.781 235.787 103.585 232.171 104.233C226.217 83.0879 196.615 82.6 190.011 103.533C187.817 102.978 185.535 102.866 183.298 103.205C181.061 103.544 178.914 104.327 176.983 105.507C175.053 106.688 173.378 108.242 172.056 110.079C170.735 111.916 169.794 113.998 169.289 116.204C154.536 111.422 138.905 124.337 140.89 139.772H100.568C87.556 139.772 78.4637 147.807 78.4637 159.291V194.342C78.4637 205.858 87.556 213.861 100.568 213.861H115.093L111.84 232.224C111.817 232.424 111.851 232.625 111.938 232.806C112.026 232.987 112.163 233.139 112.333 233.245C112.504 233.351 112.701 233.406 112.902 233.404C113.102 233.401 113.298 233.342 113.467 233.233L137.864 213.861H151.706V329.003C144.322 334.777 140.321 341.462 134.302 346.894C124.95 356.491 113.678 363.762 100.406 363.436H59.8562C59.5758 363.436 59.3069 363.548 59.1086 363.746C58.9104 363.944 58.799 364.213 58.799 364.493C58.799 364.774 58.9104 365.043 59.1086 365.241C59.3069 365.439 59.5758 365.551 59.8562 365.551H100.373C118.444 365.551 130.09 355.792 146.518 336.647C148.079 334.818 149.805 333.136 151.674 331.621C151.509 333.76 151.785 335.91 152.486 337.937C153.187 339.965 154.297 341.827 155.748 343.407C157.198 344.987 158.958 346.252 160.918 347.124C162.879 347.995 164.997 348.454 167.142 348.472H193.02C203.039 361.94 209.92 370.772 215.922 377.441C230.398 393.332 245.345 388.94 258.211 370.934C263.764 363.016 269.857 355.489 276.445 348.407H339.635V399.757H47.1043V318.105C47.1043 317.824 46.9929 317.556 46.7946 317.357C46.5963 317.159 46.3274 317.048 46.047 317.048C45.7666 317.048 45.4977 317.159 45.2994 317.357C45.1012 317.556 44.9898 317.824 44.9898 318.105V399.887H26.4636C26.1832 399.887 25.9143 399.998 25.716 400.196C25.5178 400.395 25.4064 400.664 25.4064 400.944C25.4064 401.224 25.5178 401.493 25.716 401.692C25.9143 401.89 26.1832 402.001 26.4636 402.001H531.728C532.009 402.001 532.277 401.89 532.476 401.692C532.674 401.493 532.785 401.224 532.785 400.944C532.785 400.664 532.674 400.395 532.476 400.196C532.277 399.998 532.009 399.887 531.728 399.887V399.903ZM498.937 369.243H475.141C478.391 360.333 480.469 351.038 481.322 341.592H510.242C508.509 351.515 504.653 360.948 498.937 369.243V369.243ZM439.748 399.854C427.37 399.252 416.407 388.192 409.495 371.357H439.748V399.854ZM372.914 348.553H384.885C387.445 348.55 389.965 347.912 392.218 346.697C394.472 345.483 396.389 343.729 397.8 341.592H400.24C401.101 351.037 403.178 360.33 406.42 369.243H382.673C378.307 362.929 375.01 355.939 372.914 348.553V348.553ZM401.769 329.393C401.764 323.784 402.139 318.182 402.891 312.624L439.699 312.802V339.477H402.191C401.964 336.176 401.817 332.744 401.817 329.393H401.769ZM441.814 258.916C452.793 259.452 462.666 268.203 469.579 281.931H441.863L441.814 258.916ZM511.283 329.393C511.278 332.768 511.033 336.138 510.551 339.477H481.501C482.206 330.652 481.987 321.778 480.85 312.998L509.412 313.144C510.681 318.467 511.325 323.92 511.332 329.393H511.283ZM479.744 329.393C479.744 332.809 479.598 336.176 479.338 339.477H441.863V312.802L478.72 312.981C479.438 318.422 479.797 323.905 479.793 329.393H479.744ZM441.814 310.688V284.045H470.587C474.438 292.573 477.061 301.603 478.378 310.867L441.814 310.688ZM439.699 281.931H411.951C418.88 268.203 428.736 259.452 439.716 258.916L439.699 281.931ZM439.699 284.045V310.688L403.2 310.509C404.522 301.369 407.122 292.461 410.926 284.045H439.699ZM402.37 341.592H439.699V369.243H408.698C405.387 360.345 403.275 351.047 402.419 341.592H402.37ZM441.814 371.357H472.132C465.219 388.192 454.24 399.252 441.879 399.854L441.814 371.357ZM441.814 369.243V341.592H479.224C478.365 351.045 476.259 360.342 472.962 369.243H441.814ZM480.509 310.883C479.2 301.626 476.617 292.594 472.832 284.045H494.725C501.339 291.899 506.158 301.103 508.843 311.013L480.509 310.883ZM492.87 281.931H471.888C466.879 271.7 460.291 263.941 452.777 259.908C468.236 262.575 482.363 270.326 492.919 281.931H492.87ZM400.354 271.635C408.843 265.665 418.555 261.659 428.785 259.908C421.271 263.941 414.683 271.7 409.674 281.931H400.402L400.354 271.635ZM400.354 284.045H408.698C404.97 292.474 402.409 301.372 401.085 310.493H400.37L400.354 284.045ZM400.354 312.607H400.776C400.614 313.73 400.484 314.868 400.354 316.023V312.607ZM399.866 336.875C399.866 337.753 399.996 338.615 400.061 339.477H398.938C399.349 338.644 399.676 337.773 399.914 336.875H399.866ZM142.874 137.365C142.891 134.153 143.678 130.991 145.169 128.146C146.661 125.3 148.813 122.854 151.445 121.012C154.077 119.17 157.112 117.986 160.296 117.56C163.481 117.134 166.721 117.478 169.744 118.562C169.893 118.614 170.051 118.633 170.207 118.617C170.364 118.601 170.515 118.551 170.65 118.471C170.785 118.39 170.901 118.281 170.989 118.15C171.077 118.02 171.135 117.872 171.16 117.717C171.684 114.206 173.449 110.999 176.135 108.678C178.82 106.357 182.249 105.074 185.798 105.062C187.375 105.066 188.94 105.324 190.434 105.827C190.573 105.871 190.719 105.887 190.864 105.873C191.009 105.859 191.15 105.816 191.278 105.746C191.406 105.676 191.518 105.581 191.608 105.466C191.697 105.351 191.763 105.22 191.8 105.079C192.891 100.744 195.414 96.9053 198.96 94.1849C202.507 91.4645 206.868 90.0221 211.337 90.0918C215.806 90.1615 220.121 91.7391 223.581 94.5687C227.04 97.3983 229.443 101.314 230.398 105.68C230.464 105.952 230.633 106.188 230.87 106.337C231.107 106.486 231.393 106.536 231.666 106.477C234.843 105.758 238.141 105.762 241.316 106.489C244.491 107.217 247.462 108.648 250.009 110.678C252.556 112.709 254.614 115.285 256.031 118.218C257.448 121.151 258.188 124.365 258.195 127.622C258.472 128.891 257.073 131.949 259.041 132.014C261.824 131.923 264.597 132.391 267.196 133.39C269.794 134.39 272.167 135.899 274.172 137.831C276.178 139.762 277.776 142.076 278.872 144.636C279.968 147.195 280.54 149.949 280.554 152.733C280.569 155.517 280.025 158.276 278.954 160.847C277.884 163.417 276.31 165.747 274.324 167.699C272.338 169.651 269.981 171.184 267.393 172.21C264.804 173.235 262.036 173.732 259.252 173.669H178.804V159.356C178.804 147.824 169.712 139.837 156.7 139.837H143.021C142.92 139.017 142.871 138.192 142.874 137.365V137.365ZM137.653 211.811C137.412 211.813 137.178 211.892 136.986 212.039L114.459 229.931L117.387 213.064C117.41 212.912 117.4 212.758 117.359 212.611C117.318 212.463 117.245 212.326 117.147 212.209C117.048 212.092 116.926 211.998 116.787 211.932C116.649 211.866 116.499 211.83 116.346 211.828H100.568C88.7922 211.828 80.5782 204.655 80.5782 194.375V159.307C80.5782 149.027 88.7108 141.854 100.568 141.854H156.7C168.476 141.854 176.69 149.027 176.69 159.307V194.359C176.69 204.638 168.476 211.811 156.7 211.811H137.653ZM195.622 348.553H224.9C219.233 353.932 212.884 358.542 206.016 362.265C202.991 358.313 199.559 353.791 195.622 348.553ZM256.39 369.845C244.272 386.63 231.162 390.99 217.467 376.091C214.214 372.512 210.554 367.958 207.35 363.94C214.915 359.794 221.867 354.615 228.007 348.553H273.419C267.321 355.294 261.644 362.405 256.422 369.845H256.39ZM167.109 346.439C163.569 346.435 160.175 345.026 157.672 342.523C155.168 340.02 153.76 336.626 153.756 333.085V214.007C169.126 214.853 179.894 206.379 178.772 191.594V187.771H384.934C388.452 187.775 391.827 189.166 394.326 191.641C396.826 194.116 398.249 197.477 398.288 200.995V333.036C398.284 336.577 396.875 339.971 394.372 342.474C391.868 344.978 388.474 346.386 384.934 346.39L167.109 346.439ZM341.636 399.903V348.553H370.718C372.89 356.451 376.382 363.925 381.047 370.658C381.111 370.832 381.224 370.985 381.372 371.097C391.447 385.456 406.375 395.687 423.401 399.903H341.636ZM384.153 371.357H407.266C412.471 384.37 420.002 394.129 428.801 398.862C410.947 395.769 394.97 385.919 384.186 371.357H384.153ZM474.295 371.357H497.408C486.608 385.925 470.613 395.774 452.744 398.862C461.576 394.129 469.107 384.305 474.328 371.357H474.295Z" fill="#233856"/>
<path d="M249.851 288.242H206.911C204.822 288.146 202.735 288.474 200.777 289.208C198.819 289.941 197.029 291.064 195.517 292.508C194.005 293.952 192.802 295.688 191.979 297.611C191.157 299.533 190.733 301.603 190.733 303.694C190.733 305.785 191.157 307.854 191.979 309.777C192.802 311.699 194.005 313.435 195.517 314.879C197.029 316.324 198.819 317.446 200.777 318.18C202.735 318.913 204.822 319.242 206.911 319.146H249.851C270.443 318.332 270.443 289.087 249.851 288.242ZM249.851 317.064H206.911C189.23 316.397 189.214 291.039 206.911 290.356H249.851C267.531 291.023 267.548 316.38 249.851 317.064Z" fill="#233856"/>
<path d="M342.742 288.242H299.802C279.291 289.087 279.275 318.316 299.802 319.146H342.742C363.252 318.332 363.269 289.087 342.742 288.242ZM342.742 317.064H299.802C296.26 317.064 292.863 315.657 290.359 313.152C287.855 310.648 286.448 307.252 286.448 303.71C286.448 300.168 287.855 296.772 290.359 294.267C292.863 291.763 296.26 290.356 299.802 290.356H342.742C360.422 291.023 360.439 316.381 342.742 317.064Z" fill="#233856"/>
<path d="M249.851 317.064H206.911C189.23 316.397 189.214 291.039 206.911 290.356H249.851C267.531 291.023 267.547 316.381 249.851 317.064Z" fill="#0084FF"/>
<path d="M342.742 317.064H299.802C296.26 317.064 292.863 315.657 290.359 313.153C287.855 310.648 286.448 307.252 286.448 303.71C286.448 300.168 287.855 296.772 290.359 294.267C292.863 291.763 296.26 290.356 299.802 290.356H342.742C360.422 291.023 360.439 316.381 342.742 317.064Z" fill="#0084FF"/>
<path d="M364.115 242.862H185.522C185.241 242.862 184.973 242.973 184.774 243.171C184.576 243.37 184.465 243.639 184.465 243.919C184.465 244.199 184.576 244.468 184.774 244.667C184.973 244.865 185.241 244.976 185.522 244.976H364.115C364.395 244.976 364.664 244.865 364.862 244.667C365.06 244.468 365.172 244.199 365.172 243.919C365.172 243.639 365.06 243.37 364.862 243.171C364.664 242.973 364.395 242.862 364.115 242.862Z" fill="#233856"/>
<path d="M364.115 255.678H185.522C185.241 255.678 184.973 255.79 184.774 255.988C184.576 256.186 184.465 256.455 184.465 256.736C184.465 257.016 184.576 257.285 184.774 257.483C184.973 257.682 185.241 257.793 185.522 257.793H364.115C364.395 257.793 364.664 257.682 364.862 257.483C365.06 257.285 365.172 257.016 365.172 256.736C365.172 256.455 365.06 256.186 364.862 255.988C364.664 255.79 364.395 255.678 364.115 255.678Z" fill="#233856"/>
<path d="M364.115 217.26H185.522C185.241 217.26 184.973 217.372 184.774 217.57C184.576 217.768 184.465 218.037 184.465 218.318C184.465 218.598 184.576 218.867 184.774 219.065C184.973 219.263 185.241 219.375 185.522 219.375H364.115C364.395 219.375 364.664 219.263 364.862 219.065C365.06 218.867 365.172 218.598 365.172 218.318C365.172 218.037 365.06 217.768 364.862 217.57C364.664 217.372 364.395 217.26 364.115 217.26V217.26Z" fill="#233856"/>
<path d="M364.115 230.044H185.522C185.241 230.044 184.973 230.156 184.774 230.354C184.576 230.552 184.465 230.821 184.465 231.102C184.465 231.382 184.576 231.651 184.774 231.849C184.973 232.048 185.241 232.159 185.522 232.159H364.115C364.395 232.159 364.664 232.048 364.862 231.849C365.06 231.651 365.172 231.382 365.172 231.102C365.172 230.821 365.06 230.552 364.862 230.354C364.664 230.156 364.395 230.044 364.115 230.044V230.044Z" fill="#233856"/>
<path d="M313.725 271.879C314.005 271.879 314.274 271.768 314.472 271.569C314.671 271.371 314.782 271.102 314.782 270.822C314.782 270.541 314.671 270.273 314.472 270.074C314.274 269.876 314.005 269.765 313.725 269.765H235.928C235.647 269.765 235.379 269.876 235.18 270.074C234.982 270.273 234.871 270.541 234.871 270.822C234.871 271.102 234.982 271.371 235.18 271.569C235.379 271.768 235.647 271.879 235.928 271.879H313.725Z" fill="#233856"/>
<path d="M295.15 140.813C295.163 149.981 298.81 158.769 305.292 165.251C311.774 171.733 320.562 175.38 329.73 175.393C375.614 173.49 375.598 108.12 329.73 106.217C320.56 106.23 311.769 109.88 305.286 116.365C298.804 122.851 295.158 131.643 295.15 140.813V140.813ZM329.73 108.283C338.357 108.283 346.632 111.71 352.732 117.811C358.833 123.911 362.26 132.186 362.26 140.813C360.471 183.884 299.102 183.868 297.313 140.813C297.313 132.205 300.725 123.948 306.801 117.851C312.877 111.754 321.122 108.313 329.73 108.283Z" fill="#233856"/>
<path d="M307.381 144.408L321.922 159.291C322.395 159.773 322.96 160.157 323.582 160.42C324.205 160.682 324.874 160.818 325.55 160.819H325.745C326.46 160.787 327.16 160.603 327.799 160.281C328.438 159.959 329.002 159.505 329.453 158.949L350.598 132.925C351.209 132.141 351.578 131.197 351.661 130.207C351.743 129.217 351.535 128.225 351.062 127.352C350.589 126.478 349.872 125.762 348.998 125.29C348.124 124.818 347.131 124.611 346.141 124.694C345.479 124.758 344.835 124.954 344.249 125.269C343.662 125.585 343.144 126.014 342.726 126.532L325.11 148.23L314.538 137.414C313.572 136.681 312.375 136.319 311.165 136.395C309.955 136.47 308.812 136.978 307.945 137.826C307.077 138.673 306.543 139.804 306.44 141.012C306.337 142.22 306.671 143.425 307.381 144.408V144.408ZM309.008 138.764C309.281 138.49 309.606 138.273 309.963 138.125C310.32 137.977 310.703 137.901 311.09 137.901C311.476 137.901 311.859 137.977 312.217 138.125C312.574 138.273 312.898 138.49 313.172 138.764L324.557 150.426C324.665 150.53 324.793 150.611 324.932 150.664C325.072 150.717 325.221 150.741 325.371 150.735C325.519 150.73 325.664 150.693 325.797 150.625C325.929 150.558 326.044 150.462 326.135 150.345L344.45 127.801C344.96 127.248 345.662 126.91 346.413 126.856C347.164 126.802 347.907 127.036 348.491 127.511C349.076 127.985 349.457 128.665 349.558 129.41C349.66 130.156 349.473 130.913 349.037 131.526L327.892 157.632C327.627 157.948 327.299 158.207 326.93 158.392C326.561 158.576 326.157 158.683 325.745 158.705C325.324 158.726 324.903 158.657 324.51 158.502C324.117 158.348 323.762 158.112 323.468 157.81L308.927 142.944C308.375 142.387 308.068 141.634 308.071 140.851C308.074 140.067 308.387 139.317 308.943 138.764H309.008Z" fill="#233856"/>
<path d="M122.868 276.01C122.855 266.901 119.229 258.168 112.786 251.728C106.343 245.288 97.609 241.667 88.4994 241.658C42.9566 243.545 42.9566 308.492 88.4994 310.379C97.6105 310.366 106.345 306.741 112.787 300.298C119.23 293.856 122.855 285.122 122.868 276.01V276.01ZM88.4994 308.346C79.9492 308.337 71.7519 304.936 65.7076 298.888C59.6632 292.841 56.2659 284.642 56.2616 276.092C58.0182 233.314 118.98 233.33 120.753 276.092C120.745 284.643 117.344 292.842 111.297 298.889C105.25 304.936 97.051 308.337 88.4994 308.346V308.346Z" fill="#233856"/>
<path d="M95.6397 277.019L107.79 264.917C108.291 264.457 108.694 263.901 108.975 263.281C109.256 262.661 109.408 261.99 109.422 261.31C109.437 260.63 109.314 259.954 109.06 259.322C108.807 258.691 108.428 258.117 107.947 257.636C107.466 257.155 106.892 256.776 106.261 256.523C105.629 256.269 104.953 256.146 104.273 256.161C103.592 256.175 102.922 256.327 102.302 256.608C101.682 256.888 101.126 257.292 100.666 257.793L88.5643 269.894L76.463 257.793C76.003 257.292 75.4463 256.888 74.8264 256.608C74.2065 256.327 73.5362 256.175 72.856 256.161C72.1757 256.146 71.4995 256.269 70.8681 256.523C70.2367 256.776 69.6632 257.155 69.182 257.636C68.7009 258.117 68.3221 258.691 68.0685 259.322C67.8149 259.954 67.6917 260.63 67.7064 261.31C67.721 261.99 67.8732 262.661 68.1537 263.281C68.4343 263.901 68.8374 264.457 69.3388 264.917L81.4402 277.019L69.3388 289.12C68.4602 290.078 67.9853 291.338 68.0133 292.637C68.0412 293.937 68.5699 295.175 69.4889 296.094C70.408 297.013 71.6464 297.542 72.9458 297.57C74.2452 297.598 75.5052 297.123 76.463 296.244L88.5643 284.143L100.666 296.244C101.623 297.123 102.883 297.598 104.183 297.57C105.482 297.542 106.721 297.013 107.64 296.094C108.559 295.175 109.087 293.937 109.115 292.637C109.143 291.338 108.669 290.078 107.79 289.12L95.6397 277.019ZM70.7701 263.421C70.4686 263.157 70.2244 262.834 70.0529 262.471C69.8813 262.109 69.7859 261.716 69.7726 261.315C69.7593 260.914 69.8285 260.515 69.9757 260.143C70.1229 259.77 70.3451 259.431 70.6285 259.148C70.912 258.864 71.2505 258.642 71.6233 258.495C71.9961 258.348 72.3951 258.279 72.7957 258.292C73.1963 258.305 73.5899 258.401 73.9521 258.572C74.3144 258.744 74.6375 258.988 74.9015 259.289L87.0029 271.391L82.8715 275.522L70.7701 263.421ZM74.9015 294.748C74.3426 295.237 73.6184 295.496 72.8759 295.471C72.1334 295.447 71.428 295.141 70.9027 294.615C70.3773 294.09 70.0713 293.384 70.0467 292.642C70.0221 291.899 70.2807 291.175 70.7701 290.616L102.097 259.289C102.351 258.956 102.674 258.681 103.044 258.483C103.414 258.285 103.822 258.169 104.241 258.143C104.659 258.117 105.079 258.181 105.471 258.33C105.862 258.48 106.217 258.712 106.511 259.011C106.806 259.31 107.032 259.669 107.176 260.063C107.319 260.457 107.377 260.877 107.344 261.296C107.311 261.714 107.188 262.12 106.984 262.486C106.781 262.853 106.501 263.172 106.163 263.421L74.9015 294.748ZM106.228 294.748C105.672 295.279 104.932 295.575 104.163 295.575C103.393 295.575 102.654 295.279 102.097 294.748L89.9957 282.646L94.1433 278.515L106.163 290.616C106.438 290.886 106.656 291.207 106.805 291.562C106.953 291.917 107.03 292.297 107.03 292.682C107.03 293.067 106.953 293.447 106.805 293.802C106.656 294.157 106.438 294.478 106.163 294.748H106.228Z" fill="#233856"/>
<path d="M103.626 161.958H161.628C161.909 161.958 162.177 161.847 162.376 161.649C162.574 161.45 162.685 161.181 162.685 160.901C162.685 160.621 162.574 160.352 162.376 160.153C162.177 159.955 161.909 159.844 161.628 159.844H103.626C103.346 159.844 103.077 159.955 102.879 160.153C102.68 160.352 102.569 160.621 102.569 160.901C102.569 161.181 102.68 161.45 102.879 161.649C103.077 161.847 103.346 161.958 103.626 161.958V161.958Z" fill="#233856"/>
<path d="M95.6399 177.915H161.628C161.909 177.915 162.177 177.803 162.376 177.605C162.574 177.407 162.685 177.138 162.685 176.857C162.685 176.577 162.574 176.308 162.376 176.11C162.177 175.911 161.909 175.8 161.628 175.8H95.6399C95.3595 175.8 95.0906 175.911 94.8923 176.11C94.694 176.308 94.5826 176.577 94.5826 176.857C94.5826 177.138 94.694 177.407 94.8923 177.605C95.0906 177.803 95.3595 177.915 95.6399 177.915V177.915Z" fill="#233856"/>
<path d="M147.982 191.691H95.6399C95.3595 191.691 95.0906 191.803 94.8923 192.001C94.694 192.199 94.5826 192.468 94.5826 192.748C94.5826 193.029 94.694 193.298 94.8923 193.496C95.0906 193.694 95.3595 193.806 95.6399 193.806H147.982C148.262 193.806 148.531 193.694 148.729 193.496C148.927 193.298 149.039 193.029 149.039 192.748C149.039 192.468 148.927 192.199 148.729 192.001C148.531 191.803 148.262 191.691 147.982 191.691V191.691Z" fill="#233856"/>
<path d="M457.363 208.753C457.349 208.575 457.291 208.404 457.194 208.253C457.098 208.103 456.966 207.979 456.81 207.891L422.913 189.609C422.748 189.505 422.556 189.45 422.36 189.45C422.165 189.45 421.973 189.505 421.807 189.609C421.646 189.722 421.518 189.878 421.438 190.058C421.357 190.239 421.328 190.438 421.352 190.634L426.589 228.857C426.613 229.034 426.682 229.202 426.789 229.344C426.896 229.487 427.038 229.599 427.202 229.671C427.365 229.743 427.544 229.772 427.722 229.755C427.899 229.737 428.069 229.675 428.216 229.573L437.406 223.067L449.361 240.536C449.437 240.649 449.536 240.746 449.65 240.821C449.765 240.896 449.893 240.948 450.027 240.974C450.162 241 450.3 240.999 450.434 240.971C450.568 240.943 450.695 240.889 450.808 240.812L459.738 234.826C459.969 234.665 460.127 234.42 460.179 234.143C460.231 233.866 460.172 233.58 460.014 233.346L447.962 215.959L456.843 209.68C457.005 209.587 457.139 209.451 457.23 209.288C457.322 209.125 457.368 208.94 457.363 208.753V208.753ZM445.978 214.82C445.863 214.9 445.765 215.001 445.689 215.119C445.614 215.237 445.563 215.368 445.539 215.506C445.514 215.644 445.518 215.785 445.548 215.921C445.579 216.057 445.636 216.186 445.717 216.3L457.754 233.672L450.564 238.405L438.512 221.001C438.432 220.886 438.331 220.788 438.213 220.713C438.095 220.638 437.964 220.586 437.826 220.562C437.688 220.538 437.547 220.541 437.411 220.572C437.275 220.603 437.146 220.66 437.032 220.741L428.395 226.791L423.727 192.407L454.24 208.948L445.978 214.82Z" fill="#233856"/>
<path d="M140.613 92.2451C140.894 92.2451 141.163 92.1337 141.361 91.9354C141.559 91.7372 141.671 91.4682 141.671 91.1878C141.671 90.9074 141.559 90.6385 141.361 90.4403C141.163 90.242 140.894 90.1306 140.613 90.1306H132.481C132.2 90.1306 131.932 90.242 131.733 90.4403C131.535 90.6385 131.424 90.9074 131.424 91.1878C131.424 91.4682 131.535 91.7372 131.733 91.9354C131.932 92.1337 132.2 92.2451 132.481 92.2451H140.613Z" fill="#233856"/>
<path d="M156.879 92.2451C157.159 92.2451 157.428 92.1337 157.626 91.9354C157.825 91.7372 157.936 91.4682 157.936 91.1878C157.936 90.9074 157.825 90.6385 157.626 90.4403C157.428 90.242 157.159 90.1306 156.879 90.1306H148.746C148.466 90.1306 148.197 90.242 147.999 90.4403C147.8 90.6385 147.689 90.9074 147.689 91.1878C147.689 91.4682 147.8 91.7372 147.999 91.9354C148.197 92.1337 148.466 92.2451 148.746 92.2451H156.879Z" fill="#233856"/>
<path d="M124.348 92.2451C124.628 92.2451 124.897 92.1337 125.096 91.9354C125.294 91.7372 125.405 91.4682 125.405 91.1878C125.405 90.9074 125.294 90.6385 125.096 90.4403C124.897 90.242 124.628 90.1306 124.348 90.1306H116.215C115.935 90.1306 115.666 90.242 115.468 90.4403C115.27 90.6385 115.158 90.9074 115.158 91.1878C115.158 91.4682 115.27 91.7372 115.468 91.9354C115.666 92.1337 115.935 92.2451 116.215 92.2451H124.348Z" fill="#233856"/>
<path d="M108.083 92.2451C108.363 92.2451 108.632 92.1337 108.83 91.9354C109.029 91.7372 109.14 91.4682 109.14 91.1878C109.14 90.9074 109.029 90.6385 108.83 90.4403C108.632 90.242 108.363 90.1306 108.083 90.1306H99.9502C99.6698 90.1306 99.4009 90.242 99.2026 90.4403C99.0043 90.6385 98.8929 90.9074 98.8929 91.1878C98.8929 91.4682 99.0043 91.7372 99.2026 91.9354C99.4009 92.1337 99.6698 92.2451 99.9502 92.2451H108.083Z" fill="#233856"/>
<path d="M506.11 250.457C506.391 250.457 506.66 250.346 506.858 250.148C507.056 249.949 507.168 249.68 507.168 249.4C507.168 249.12 507.056 248.851 506.858 248.652C506.66 248.454 506.391 248.343 506.11 248.343H497.978C497.697 248.343 497.428 248.454 497.23 248.652C497.032 248.851 496.921 249.12 496.921 249.4C496.921 249.68 497.032 249.949 497.23 250.148C497.428 250.346 497.697 250.457 497.978 250.457H506.11Z" fill="#233856"/>
<path d="M480.655 249.4C480.655 249.68 480.767 249.949 480.965 250.148C481.163 250.346 481.432 250.457 481.713 250.457H489.845C490.126 250.457 490.394 250.346 490.593 250.148C490.791 249.949 490.902 249.68 490.902 249.4C490.902 249.12 490.791 248.851 490.593 248.652C490.394 248.454 490.126 248.343 489.845 248.343H481.713C481.432 248.343 481.163 248.454 480.965 248.652C480.767 248.851 480.655 249.12 480.655 249.4Z" fill="#233856"/>
<path d="M465.447 248.343C465.167 248.343 464.898 248.454 464.7 248.652C464.501 248.851 464.39 249.12 464.39 249.4C464.39 249.68 464.501 249.949 464.7 250.148C464.898 250.346 465.167 250.457 465.447 250.457H473.58C473.86 250.457 474.129 250.346 474.327 250.148C474.526 249.949 474.637 249.68 474.637 249.4C474.637 249.12 474.526 248.851 474.327 248.652C474.129 248.454 473.86 248.343 473.58 248.343H465.447Z" fill="#233856"/>
<path d="M514.243 248.343C513.963 248.343 513.694 248.454 513.495 248.652C513.297 248.851 513.186 249.12 513.186 249.4C513.186 249.68 513.297 249.949 513.495 250.148C513.694 250.346 513.963 250.457 514.243 250.457H522.376C522.656 250.457 522.925 250.346 523.123 250.148C523.322 249.949 523.433 249.68 523.433 249.4C523.433 249.12 523.322 248.851 523.123 248.652C522.925 248.454 522.656 248.343 522.376 248.343H514.243Z" fill="#233856"/>
<path d="M285.244 58.153C285.524 58.153 285.793 58.0417 285.992 57.8434C286.19 57.6451 286.301 57.3762 286.301 57.0958C286.301 56.8154 286.19 56.5465 285.992 56.3482C285.793 56.1499 285.524 56.0386 285.244 56.0386H277.111C276.831 56.0386 276.562 56.1499 276.364 56.3482C276.166 56.5465 276.054 56.8154 276.054 57.0958C276.054 57.3762 276.166 57.6451 276.364 57.8434C276.562 58.0417 276.831 58.153 277.111 58.153H285.244Z" fill="#233856"/>
<path d="M334.04 58.153C334.32 58.153 334.589 58.0417 334.788 57.8434C334.986 57.6451 335.097 57.3762 335.097 57.0958C335.097 56.8154 334.986 56.5465 334.788 56.3482C334.589 56.1499 334.32 56.0386 334.04 56.0386H325.907C325.627 56.0386 325.358 56.1499 325.16 56.3482C324.961 56.5465 324.85 56.8154 324.85 57.0958C324.85 57.3762 324.961 57.6451 325.16 57.8434C325.358 58.0417 325.627 58.153 325.907 58.153H334.04Z" fill="#233856"/>
<path d="M317.775 58.153C318.055 58.153 318.324 58.0417 318.522 57.8434C318.72 57.6451 318.832 57.3762 318.832 57.0958C318.832 56.8154 318.72 56.5465 318.522 56.3482C318.324 56.1499 318.055 56.0386 317.775 56.0386H309.642C309.362 56.0386 309.093 56.1499 308.894 56.3482C308.696 56.5465 308.585 56.8154 308.585 57.0958C308.585 57.3762 308.696 57.6451 308.894 57.8434C309.093 58.0417 309.362 58.153 309.642 58.153H317.775Z" fill="#233856"/>
<path d="M301.509 56.0386H293.377C293.096 56.0386 292.828 56.1499 292.629 56.3482C292.431 56.5465 292.32 56.8154 292.32 57.0958C292.32 57.3762 292.431 57.6451 292.629 57.8434C292.828 58.0417 293.096 58.153 293.377 58.153H301.509C301.79 58.153 302.059 58.0417 302.257 57.8434C302.455 57.6451 302.567 57.3762 302.567 57.0958C302.567 56.8154 302.455 56.5465 302.257 56.3482C302.059 56.1499 301.79 56.0386 301.509 56.0386Z" fill="#233856"/>
<path d="M273.045 115.017C273.045 115.297 273.157 115.566 273.355 115.764C273.553 115.963 273.822 116.074 274.102 116.074H288.139C288.278 116.074 288.416 116.047 288.544 115.994C288.672 115.94 288.789 115.862 288.887 115.764C288.985 115.666 289.063 115.55 289.116 115.421C289.169 115.293 289.197 115.156 289.197 115.017C289.197 114.878 289.169 114.74 289.116 114.612C289.063 114.484 288.985 114.367 288.887 114.269C288.789 114.171 288.672 114.093 288.544 114.04C288.416 113.987 288.278 113.959 288.139 113.959H274.102C273.822 113.959 273.553 114.071 273.355 114.269C273.157 114.467 273.045 114.736 273.045 115.017Z" fill="#233856"/>
<path d="M525.401 194.342C525.401 194.062 525.29 193.793 525.091 193.595C524.893 193.397 524.624 193.285 524.344 193.285H510.307C510.168 193.285 510.03 193.312 509.902 193.366C509.774 193.419 509.657 193.497 509.559 193.595C509.461 193.693 509.383 193.81 509.33 193.938C509.277 194.066 509.25 194.204 509.25 194.342C509.25 194.481 509.277 194.619 509.33 194.747C509.383 194.875 509.461 194.992 509.559 195.09C509.657 195.188 509.774 195.266 509.902 195.319C510.03 195.372 510.168 195.4 510.307 195.4H524.344C524.624 195.4 524.893 195.288 525.091 195.09C525.29 194.892 525.401 194.623 525.401 194.342V194.342Z" fill="#233856"/>
<path d="M377.322 385.183H363.269C362.988 385.183 362.719 385.294 362.521 385.493C362.323 385.691 362.211 385.96 362.211 386.24C362.211 386.521 362.323 386.789 362.521 386.988C362.719 387.186 362.988 387.297 363.269 387.297H377.322C377.602 387.297 377.871 387.186 378.069 386.988C378.268 386.789 378.379 386.521 378.379 386.24C378.379 385.96 378.268 385.691 378.069 385.493C377.871 385.294 377.602 385.183 377.322 385.183V385.183Z" fill="#233856"/>
<path d="M357.771 82.8764C358.052 82.8764 358.32 82.7651 358.519 82.5668C358.717 82.3685 358.828 82.0995 358.828 81.8191C358.828 81.5387 358.717 81.2699 358.519 81.0716C358.32 80.8733 358.052 80.762 357.771 80.762H343.734C343.454 80.762 343.185 80.8733 342.987 81.0716C342.788 81.2699 342.677 81.5387 342.677 81.8191C342.677 82.0995 342.788 82.3685 342.987 82.5668C343.185 82.7651 343.454 82.8764 343.734 82.8764H357.771Z" fill="#233856"/>
<path d="M233.667 68.1399C233.947 68.1399 234.216 68.0285 234.415 67.8302C234.613 67.6319 234.724 67.3631 234.724 67.0827C234.724 66.8023 234.613 66.5334 234.415 66.3351C234.216 66.1368 233.947 66.0254 233.667 66.0254H219.614C219.333 66.0254 219.064 66.1368 218.866 66.3351C218.668 66.5334 218.557 66.8023 218.557 67.0827C218.557 67.3631 218.668 67.6319 218.866 67.8302C219.064 68.0285 219.333 68.1399 219.614 68.1399H233.667Z" fill="#233856"/>
<path d="M62.2472 191.691H48.1777C47.8973 191.691 47.6284 191.803 47.4301 192.001C47.2319 192.199 47.1205 192.468 47.1205 192.748C47.1205 193.029 47.2319 193.298 47.4301 193.496C47.6284 193.694 47.8973 193.806 48.1777 193.806H62.2472C62.5276 193.806 62.7965 193.694 62.9948 193.496C63.193 193.298 63.3044 193.029 63.3044 192.748C63.3044 192.468 63.193 192.199 62.9948 192.001C62.7965 191.803 62.5276 191.691 62.2472 191.691V191.691Z" fill="#233856"/>
<path d="M139.654 319.178C139.934 319.178 140.203 319.067 140.401 318.869C140.599 318.67 140.711 318.401 140.711 318.121C140.711 317.841 140.599 317.572 140.401 317.373C140.203 317.175 139.934 317.064 139.654 317.064H125.682C125.401 317.064 125.132 317.175 124.934 317.373C124.736 317.572 124.625 317.841 124.625 318.121C124.625 318.401 124.736 318.67 124.934 318.869C125.132 319.067 125.401 319.178 125.682 319.178H139.654Z" fill="#233856"/>
<path d="M380.168 121.588C379.888 121.588 379.619 121.699 379.421 121.897C379.222 122.096 379.111 122.365 379.111 122.645V137.284C379.111 137.564 379.222 137.833 379.421 138.031C379.619 138.23 379.888 138.341 380.168 138.341H390.025C391.069 143.392 393.061 148.199 395.897 152.508L388.919 159.469C388.724 159.67 388.615 159.938 388.615 160.218C388.615 160.497 388.724 160.766 388.919 160.966L399.312 171.359C399.513 171.554 399.781 171.663 400.061 171.663C400.34 171.663 400.608 171.554 400.809 171.359L407.77 164.382C412.079 167.217 416.886 169.209 421.937 170.253V180.11C421.937 180.391 422.049 180.659 422.247 180.858C422.445 181.056 422.714 181.167 422.995 181.167H437.633C437.914 181.167 438.183 181.056 438.381 180.858C438.579 180.659 438.691 180.391 438.691 180.11V170.253C443.741 169.206 448.548 167.214 452.858 164.382L459.819 171.359C460.02 171.554 460.288 171.663 460.567 171.663C460.847 171.663 461.115 171.554 461.316 171.359L471.693 160.966C471.793 160.869 471.873 160.753 471.928 160.624C471.982 160.496 472.01 160.357 472.01 160.218C472.01 160.078 471.982 159.94 471.928 159.811C471.873 159.683 471.793 159.567 471.693 159.469L464.731 152.508C467.567 148.199 469.559 143.392 470.603 138.341H480.46C480.739 138.337 481.005 138.224 481.203 138.027C481.4 137.829 481.513 137.563 481.517 137.284V122.645C481.513 122.366 481.4 122.099 481.203 121.902C481.005 121.705 480.739 121.592 480.46 121.588H470.603C469.556 116.538 467.564 111.731 464.731 107.421L471.693 100.459C471.793 100.362 471.873 100.246 471.928 100.117C471.982 99.9887 472.01 99.8505 472.01 99.7109C472.01 99.5713 471.982 99.4331 471.928 99.3045C471.873 99.176 471.793 99.0598 471.693 98.9627L461.316 88.5855C461.219 88.4851 461.102 88.4053 460.974 88.3508C460.845 88.2963 460.707 88.2682 460.567 88.2682C460.428 88.2682 460.29 88.2963 460.161 88.3508C460.033 88.4053 459.916 88.4851 459.819 88.5855L452.858 95.547C448.548 92.7145 443.741 90.7223 438.691 89.6752V79.8185C438.686 79.5394 438.574 79.2729 438.376 79.0755C438.179 78.8781 437.913 78.7654 437.633 78.7612H422.995C422.716 78.7654 422.449 78.8781 422.252 79.0755C422.054 79.2729 421.942 79.5394 421.937 79.8185V89.6752C416.886 90.7192 412.079 92.7117 407.77 95.547L400.809 88.5855C400.712 88.4851 400.596 88.4053 400.467 88.3508C400.338 88.2963 400.2 88.2682 400.061 88.2682C399.921 88.2682 399.783 88.2963 399.654 88.3508C399.526 88.4053 399.41 88.4851 399.312 88.5855L388.919 98.9627C388.724 99.1631 388.615 99.4314 388.615 99.7109C388.615 99.9903 388.724 100.259 388.919 100.459L395.897 107.421C393.064 111.731 391.072 116.538 390.025 121.588H380.168ZM391.944 122.84C392.923 117.476 395.03 112.381 398.125 107.892C398.267 107.69 398.334 107.443 398.313 107.197C398.292 106.95 398.185 106.718 398.011 106.542L391.164 99.7109L400.061 90.8301L406.892 97.6614C407.068 97.8355 407.3 97.9422 407.546 97.963C407.793 97.9838 408.039 97.9174 408.242 97.7753C412.731 94.6802 417.826 92.5735 423.19 91.5945C423.432 91.5489 423.651 91.4199 423.809 91.2298C423.966 91.0396 424.052 90.8004 424.052 90.5535V80.8919H436.625V90.5535C436.625 90.8004 436.71 91.0396 436.868 91.2298C437.025 91.4199 437.244 91.5489 437.487 91.5945C442.851 92.5735 447.946 94.6802 452.435 97.7753C452.638 97.9174 452.884 97.9838 453.13 97.963C453.377 97.9422 453.609 97.8355 453.785 97.6614L460.616 90.8301L469.497 99.7109L462.666 106.542C462.492 106.718 462.385 106.95 462.364 107.197C462.343 107.443 462.41 107.69 462.552 107.892C465.647 112.381 467.754 117.476 468.733 122.84C468.778 123.083 468.907 123.302 469.097 123.459C469.288 123.617 469.527 123.703 469.774 123.702H479.435V136.275H469.774C469.527 136.275 469.288 136.361 469.097 136.518C468.907 136.676 468.778 136.895 468.733 137.137C467.754 142.501 465.647 147.596 462.552 152.085C462.41 152.288 462.343 152.534 462.364 152.781C462.385 153.027 462.492 153.259 462.666 153.435L469.497 160.267L460.616 169.164L453.785 162.316C453.609 162.142 453.377 162.035 453.13 162.014C452.884 161.994 452.638 162.06 452.435 162.202C447.946 165.297 442.851 167.404 437.487 168.383C437.244 168.428 437.025 168.558 436.868 168.748C436.71 168.938 436.625 169.177 436.625 169.424V179.102H424.052V169.424C424.052 169.177 423.966 168.938 423.809 168.748C423.651 168.558 423.432 168.428 423.19 168.383C417.826 167.404 412.731 165.297 408.242 162.202C408.039 162.06 407.793 161.994 407.546 162.014C407.3 162.035 407.068 162.142 406.892 162.316L400.061 169.164L391.164 160.332L398.011 153.5C398.185 153.324 398.292 153.093 398.313 152.846C398.334 152.599 398.267 152.353 398.125 152.15C395.03 147.661 392.923 142.566 391.944 137.202C391.899 136.96 391.77 136.741 391.58 136.583C391.389 136.426 391.15 136.34 390.903 136.34H381.225V123.767H390.903C391.148 123.768 391.385 123.685 391.575 123.531C391.765 123.376 391.895 123.161 391.944 122.921V122.84Z" fill="#233856"/>
<path d="M430.33 155.078C436.983 155.074 443.361 152.43 448.066 147.728C452.772 143.026 455.419 136.649 455.428 129.997C454.045 96.7019 406.632 96.7181 405.249 129.997C405.258 136.646 407.903 143.021 412.605 147.722C417.307 152.424 423.681 155.069 430.33 155.078V155.078ZM430.33 107.014C436.423 107.023 442.264 109.447 446.572 113.755C450.881 118.063 453.305 123.904 453.313 129.997C452.045 160.478 408.616 160.462 407.364 129.997C407.368 123.906 409.789 118.065 414.094 113.756C418.4 109.447 424.239 107.023 430.33 107.014V107.014Z" fill="#233856"/>
<path d="M430.33 142.521C433.651 142.517 436.834 141.196 439.182 138.848C441.529 136.5 442.85 133.317 442.855 129.997C442.237 113.39 418.457 113.406 417.806 129.997C417.815 133.316 419.137 136.497 421.484 138.843C423.831 141.19 427.011 142.513 430.33 142.521ZM430.33 119.587C433.09 119.591 435.735 120.69 437.686 122.641C439.638 124.592 440.736 127.237 440.74 129.997C440.252 143.774 420.409 143.757 419.921 129.997C419.946 127.251 421.054 124.627 423.003 122.693C424.952 120.76 427.585 119.673 430.33 119.668V119.587Z" fill="#233856"/>
<path d="M257.837 164.382C258.269 164.382 258.682 164.21 258.987 163.905C259.292 163.6 259.464 163.187 259.464 162.755C259.464 162.324 259.292 161.91 258.987 161.605C258.682 161.3 258.269 161.129 257.837 161.129C257.406 161.129 256.992 161.3 256.687 161.605C256.382 161.91 256.211 162.324 256.211 162.755C256.211 163.187 256.382 163.6 256.687 163.905C256.992 164.21 257.406 164.382 257.837 164.382Z" fill="#233856"/>
<path d="M236.985 145.969C237.416 145.969 237.83 145.798 238.135 145.493C238.44 145.188 238.612 144.774 238.612 144.343C238.612 143.911 238.44 143.498 238.135 143.193C237.83 142.888 237.416 142.716 236.985 142.716C236.554 142.716 236.14 142.888 235.835 143.193C235.53 143.498 235.359 143.911 235.359 144.343C235.359 144.774 235.53 145.188 235.835 145.493C236.14 145.798 236.554 145.969 236.985 145.969Z" fill="#233856"/>
<path d="M177.731 134.698C178.162 134.698 178.576 134.526 178.881 134.221C179.186 133.916 179.357 133.502 179.357 133.071C179.357 132.64 179.186 132.226 178.881 131.921C178.576 131.616 178.162 131.445 177.731 131.445C177.299 131.445 176.886 131.616 176.581 131.921C176.276 132.226 176.104 132.64 176.104 133.071C176.104 133.502 176.276 133.916 176.581 134.221C176.886 134.526 177.299 134.698 177.731 134.698Z" fill="#233856"/>
<path d="M205.772 154.59C206.203 154.59 206.617 154.419 206.922 154.114C207.227 153.809 207.399 153.395 207.399 152.963C207.399 152.532 207.227 152.118 206.922 151.813C206.617 151.508 206.203 151.337 205.772 151.337C205.341 151.337 204.927 151.508 204.622 151.813C204.317 152.118 204.146 152.532 204.146 152.963C204.146 153.395 204.317 153.809 204.622 154.114C204.927 154.419 205.341 154.59 205.772 154.59Z" fill="#233856"/>
<path d="M187.685 166.724H214.588C214.868 166.724 215.137 166.612 215.335 166.414C215.534 166.216 215.645 165.947 215.645 165.667C215.645 165.386 215.534 165.117 215.335 164.919C215.137 164.721 214.868 164.609 214.588 164.609H187.685C187.405 164.609 187.136 164.721 186.937 164.919C186.739 165.117 186.628 165.386 186.628 165.667C186.628 165.947 186.739 166.216 186.937 166.414C187.136 166.612 187.405 166.724 187.685 166.724Z" fill="#233856"/>
<path d="M222.476 166.724H230.804C231.085 166.724 231.354 166.612 231.552 166.414C231.75 166.216 231.861 165.947 231.861 165.667C231.861 165.386 231.75 165.117 231.552 164.919C231.354 164.721 231.085 164.609 230.804 164.609H222.476C222.196 164.609 221.927 164.721 221.729 164.919C221.531 165.117 221.419 165.386 221.419 165.667C221.419 165.947 221.531 166.216 221.729 166.414C221.927 166.612 222.196 166.724 222.476 166.724Z" fill="#233856"/>
<path d="M213.677 307.093V312.331H210.603V307.207L204.634 296.325H207.756L212.116 303.84L216.41 296.325H219.5L213.677 307.093Z" fill="white"/>
<path d="M233.195 296.325V298.993H224.526V302.945H232.301V305.629H224.526V309.647H233.472V312.331H221.468V296.325H233.195Z" fill="white"/>
<path d="M241.849 298.977C240.401 298.977 239.458 299.497 239.458 300.489C239.458 303.743 248.062 301.97 248.029 307.711C248.029 310.704 245.427 312.444 241.914 312.444C239.423 312.428 237.021 311.515 235.147 309.875L236.432 307.288C237.949 308.688 239.902 309.521 241.962 309.647C243.589 309.647 244.695 309.012 244.695 307.89C244.695 304.556 236.107 306.443 236.107 300.75C236.107 297.968 238.498 296.179 242.092 296.179C244.136 296.176 246.14 296.739 247.883 297.806L246.647 300.457C245.193 299.576 243.545 299.068 241.849 298.977V298.977Z" fill="white"/>
<path d="M309.642 296.439L317.889 307.386V296.439H320.865V312.445H317.97L309.74 301.514V312.445H306.747V296.439H309.642Z" fill="white"/>
<path d="M340.595 304.442C340.676 306.147 340.245 307.837 339.357 309.294C338.468 310.751 337.164 311.908 335.611 312.617C334.059 313.326 332.33 313.553 330.647 313.269C328.964 312.986 327.405 312.205 326.17 311.027C324.936 309.849 324.082 308.328 323.72 306.66C323.358 304.992 323.504 303.254 324.14 301.67C324.775 300.087 325.87 298.729 327.284 297.774C328.698 296.818 330.365 296.308 332.072 296.309C333.172 296.257 334.272 296.428 335.304 296.813C336.336 297.198 337.28 297.788 338.077 298.549C338.874 299.309 339.508 300.224 339.941 301.237C340.374 302.25 340.596 303.34 340.595 304.442V304.442ZM326.688 304.442C326.697 305.876 327.273 307.248 328.292 308.257C329.31 309.266 330.687 309.83 332.121 309.826C333.179 309.813 334.209 309.488 335.083 308.891C335.957 308.294 336.635 307.452 337.032 306.472C337.428 305.491 337.526 304.414 337.313 303.378C337.1 302.341 336.586 301.391 335.834 300.646C335.082 299.901 334.127 299.395 333.089 299.192C332.051 298.988 330.975 299.096 329.998 299.501C329.021 299.907 328.185 300.592 327.596 301.471C327.007 302.35 326.691 303.384 326.688 304.442V304.442Z" fill="white"/>
</svg>
