<?xml version="1.0" standalone="no"?>
<!DOCTYPE svg PUBLIC "-//W3C//DTD SVG 20010904//EN"
 "http://www.w3.org/TR/2001/REC-SVG-20010904/DTD/svg10.dtd">
<svg version="1.0" xmlns="http://www.w3.org/2000/svg"
 width="444.000000pt" height="446.000000pt" viewBox="0 0 444.000000 446.000000"
 preserveAspectRatio="xMidYMid meet">
<metadata>
Created by potrace 1.16, written by Peter Selinger 2001-2019
</metadata>
<g transform="translate(0.000000,446.000000) scale(0.100000,-0.100000)"
fill="#000000" stroke="none">
<path d="M1975 4424 c-263 -30 -552 -117 -757 -228 -27 -14 -68 -37 -91 -49
-75 -40 -228 -147 -313 -218 -356 -297 -607 -687 -724 -1124 -73 -273 -95
-549 -65 -810 34 -289 87 -475 212 -744 29 -62 124 -223 171 -291 212 -302
541 -584 846 -724 31 -14 80 -37 109 -50 58 -27 203 -77 287 -99 612 -164
1276 -56 1803 294 798 530 1163 1521 902 2448 -175 624 -640 1160 -1230 1419
-367 161 -759 221 -1150 176z m1421 -1195 l29 -30 -1 -142 c-1 -78 -8 -185
-17 -237 -9 -52 -25 -158 -37 -235 -11 -77 -24 -162 -30 -190 -5 -27 -12 -70
-15 -95 -3 -25 -12 -85 -20 -135 -8 -49 -21 -135 -30 -190 -16 -100 -32 -197
-60 -362 -8 -49 -24 -149 -36 -223 -26 -170 -50 -246 -95 -298 -42 -49 -88
-66 -163 -59 -93 9 -117 23 -481 282 -25 17 -136 96 -248 174 -222 157 -262
195 -262 252 0 41 40 108 92 154 18 16 119 110 223 210 105 99 264 249 353
334 164 155 216 221 210 263 -3 20 -8 23 -40 21 -47 -3 -118 -39 -233 -118
-49 -34 -196 -133 -325 -220 -129 -87 -269 -182 -310 -210 -368 -253 -379
-259 -535 -259 -120 1 -105 -3 -404 103 -78 28 -158 60 -177 72 -43 26 -53 62
-27 97 22 30 183 116 303 160 25 10 538 239 675 302 39 18 95 43 125 57 30 13
70 31 87 39 501 227 867 378 1093 453 174 58 180 59 256 60 66 1 72 -1 100
-30z"/>
</g>
</svg>
