<?xml version="1.0" standalone="no"?>
<!DOCTYPE svg PUBLIC "-//W3C//DTD SVG 20010904//EN"
 "http://www.w3.org/TR/2001/REC-SVG-20010904/DTD/svg10.dtd">
<svg version="1.0" xmlns="http://www.w3.org/2000/svg"
 width="444.000000pt" height="446.000000pt" viewBox="0 0 444.000000 446.000000"
 preserveAspectRatio="xMidYMid meet">
<metadata>
Created by potrace 1.16, written by Peter Selinger 2001-2019
</metadata>
<g transform="translate(0.000000,446.000000) scale(0.100000,-0.100000)"
fill="#000000" stroke="none">
<path d="M1940 4430 c-644 -86 -1202 -433 -1562 -970 -82 -123 -203 -366 -246
-495 -130 -389 -156 -766 -81 -1155 44 -225 88 -353 199 -575 336 -671 988
-1120 1744 -1200 380 -41 756 16 1106 168 322 140 597 346 828 622 205 244
369 570 445 885 84 345 83 716 -4 1065 -38 155 -76 257 -159 430 -233 485
-637 865 -1150 1080 -335 140 -751 194 -1120 145z m875 -758 l150 -7 3 -237 2
-238 -162 -1 c-126 0 -174 -4 -210 -17 -72 -26 -132 -74 -156 -124 -21 -42
-22 -59 -22 -286 l0 -242 265 0 266 0 -5 -32 c-3 -18 -15 -94 -26 -168 -11
-74 -25 -157 -30 -185 -5 -27 -12 -75 -16 -105 -4 -30 -11 -61 -17 -67 -7 -10
-64 -13 -223 -13 l-214 0 0 -679 c0 -374 -3 -686 -6 -695 -5 -14 -42 -16 -305
-16 l-299 0 0 689 c0 438 -4 692 -10 696 -5 3 -119 6 -254 6 -211 0 -245 2
-250 15 -8 21 -8 518 0 538 5 14 37 16 248 16 132 0 246 4 253 8 8 5 13 93 15
307 4 269 7 307 25 365 45 140 103 238 190 322 66 62 122 97 206 128 103 38
156 40 582 22z"/>
</g>
</svg>
