<svg width="46" height="46" viewBox="0 0 46 46" fill="none" xmlns="http://www.w3.org/2000/svg">
<g clip-path="url(#clip0_165_27)">
<path fill-rule="evenodd" clip-rule="evenodd" d="M22.6311 0C10.1274 0 0 10.3836 0 23.2035C0 33.471 6.47814 42.1433 15.474 45.2178C16.6055 45.4208 17.0299 44.7247 17.0299 44.1156C17.0299 43.5645 17.0016 41.7373 17.0016 39.794C11.3155 40.8671 9.84451 38.3728 9.39189 37.0676C9.13729 36.4005 8.03402 34.3411 7.0722 33.7901C6.28012 33.355 5.14856 32.2818 7.04392 32.2528C8.82611 32.2238 10.0991 33.9351 10.5234 34.6312C12.5602 38.1407 15.8134 37.1546 17.1147 36.5455C17.3128 35.0373 17.9068 34.0221 18.5575 33.442C13.5221 32.8619 8.26033 30.8606 8.26033 21.9853C8.26033 19.4619 9.13729 17.3736 10.58 15.7494C10.3537 15.1693 9.56162 12.7909 10.8063 9.60044C10.8063 9.60044 12.7017 8.99135 17.0299 11.9788C18.8404 11.4567 20.764 11.1957 22.6876 11.1957C24.6113 11.1957 26.5349 11.4567 28.3454 11.9788C32.6736 8.96234 34.5689 9.60044 34.5689 9.60044C35.8136 12.7909 35.0216 15.1693 34.7952 15.7494C36.238 17.3736 37.1149 19.4329 37.1149 21.9853C37.1149 30.8896 31.8249 32.8619 26.7895 33.442C27.6099 34.1671 28.3171 35.5593 28.3171 37.7347C28.3171 40.8381 28.2888 43.3325 28.2888 44.1156C28.2888 44.7247 28.7132 45.4498 29.8447 45.2178C38.784 42.1433 45.2621 33.442 45.2621 23.2035C45.2621 10.3836 35.1347 0 22.6311 0Z" fill="white"/>
</g>
<defs>
<clipPath id="clip0_165_27">
<rect width="45.2621" height="45.2621" fill="white"/>
</clipPath>
</defs>
</svg>
