<?xml version="1.0" standalone="no"?>
<!DOCTYPE svg PUBLIC "-//W3C//DTD SVG 20010904//EN"
 "http://www.w3.org/TR/2001/REC-SVG-20010904/DTD/svg10.dtd">
<svg version="1.0" xmlns="http://www.w3.org/2000/svg"
 width="444.000000pt" height="446.000000pt" viewBox="0 0 444.000000 446.000000"
 preserveAspectRatio="xMidYMid meet">
<metadata>
Created by potrace 1.16, written by Peter Selinger 2001-2019
</metadata>
<g transform="translate(0.000000,446.000000) scale(0.100000,-0.100000)"
fill="#000000" stroke="none">
<path d="M1945 4430 c-232 -32 -387 -74 -589 -160 -578 -246 -1029 -734 -1229
-1330 -72 -215 -117 -489 -117 -710 0 -162 33 -400 80 -575 117 -437 368 -827
724 -1124 85 -71 238 -178 313 -218 23 -12 64 -35 90 -49 65 -34 212 -96 303
-127 414 -139 846 -153 1275 -41 743 193 1351 791 1560 1535 98 347 110 717
36 1065 -119 560 -453 1055 -928 1375 -441 298 -999 430 -1518 359z m1055
-790 c91 -17 134 -31 206 -67 162 -80 282 -199 358 -358 78 -160 76 -137 76
-987 0 -697 -2 -758 -19 -823 -63 -243 -250 -453 -475 -535 -137 -49 -147 -50
-923 -50 -693 0 -732 1 -811 20 -234 56 -420 203 -525 415 -76 154 -72 98 -72
980 l0 790 23 71 c88 280 319 487 606 544 55 11 1499 11 1556 0z"/>
<path d="M1461 3384 c-132 -29 -259 -124 -328 -245 -74 -129 -73 -116 -73
-904 0 -779 0 -774 67 -895 74 -133 217 -235 364 -259 88 -15 1378 -15 1468 0
36 5 98 25 139 44 135 63 250 207 281 353 15 74 15 1440 0 1514 -40 187 -207
353 -396 393 -98 21 -1426 20 -1522 -1z m1571 -236 c48 -14 105 -75 114 -122
31 -168 -179 -268 -288 -137 -72 85 -28 230 79 259 52 14 51 14 95 0z m-649
-157 c359 -79 618 -395 618 -757 0 -323 -202 -609 -512 -727 -60 -23 -199 -47
-271 -47 -109 0 -251 38 -358 97 -215 118 -355 321 -395 574 -15 97 -15 114 0
205 30 191 108 340 248 470 181 167 432 237 670 185z"/>
<path d="M2116 2724 c-275 -67 -449 -343 -380 -608 25 -98 64 -166 135 -237
135 -136 322 -184 507 -130 102 30 226 132 287 235 169 288 -4 671 -334 741
-87 18 -137 18 -215 -1z"/>
</g>
</svg>
