<?xml version="1.0" standalone="no"?>
<!DOCTYPE svg PUBLIC "-//W3C//DTD SVG 20010904//EN"
 "http://www.w3.org/TR/2001/REC-SVG-20010904/DTD/svg10.dtd">
<svg version="1.0" xmlns="http://www.w3.org/2000/svg"
 width="444.000000pt" height="446.000000pt" viewBox="0 0 444.000000 446.000000"
 preserveAspectRatio="xMidYMid meet">
<metadata>
Created by potrace 1.16, written by Peter Selinger 2001-2019
</metadata>
<g transform="translate(0.000000,446.000000) scale(0.100000,-0.100000)"
fill="#000000" stroke="none">
<path d="M1975 4425 c-416 -49 -776 -193 -1105 -444 -79 -60 -114 -91 -194
-169 -300 -294 -512 -663 -609 -1062 -84 -345 -83 -716 4 -1065 188 -760 795
-1386 1544 -1591 533 -146 1085 -96 1575 143 567 276 991 787 1163 1403 116
412 99 896 -46 1316 -32 95 -42 118 -108 254 -204 415 -548 766 -963 979 -394
203 -835 285 -1261 236z m-608 -933 c84 -44 151 -136 169 -235 16 -92 -39
-219 -123 -283 -45 -35 -130 -64 -184 -64 -63 0 -140 33 -195 82 -71 65 -99
130 -98 228 0 128 60 220 178 277 44 21 62 24 131 20 57 -2 92 -10 122 -25z
m1663 -821 c93 -26 158 -63 235 -133 70 -65 113 -125 153 -219 l27 -64 3 -633
3 -632 -248 2 -248 3 -5 495 c-5 526 -5 519 -56 601 -12 20 -41 52 -64 72
-133 113 -375 80 -481 -66 -67 -91 -64 -64 -69 -607 l-5 -495 -247 -3 -248 -2
0 840 0 840 248 -2 247 -3 3 -103 3 -104 39 45 c40 45 129 110 185 136 85 38
150 49 303 50 122 1 166 -3 222 -18z m-1542 -838 l-3 -838 -250 0 -250 0 -3
825 c-1 454 0 831 3 838 3 9 64 12 255 12 l250 0 -2 -837z"/>
</g>
</svg>
