<svg width="46" height="45" viewBox="0 0 46 45" fill="none" xmlns="http://www.w3.org/2000/svg">
<g clip-path="url(#clip0_165_43)">
<path d="M20.5535 0.348756C16.3878 0.837216 12.783 2.27269 9.48857 4.7748C8.69751 5.37291 8.34704 5.68194 7.54596 6.45949C4.54192 9.39025 2.41906 13.0686 1.44775 17.0461C0.606624 20.4853 0.616637 24.1836 1.48781 27.6626C3.37034 35.2387 9.44852 41.4791 16.9486 43.5226C22.2858 44.978 27.8132 44.4796 32.7198 42.0971C38.3975 39.3458 42.6432 34.2518 44.3655 28.1112C45.527 24.0042 45.3568 19.1794 43.9049 14.9926C43.5844 14.0456 43.4843 13.8163 42.8234 12.4606C40.7807 8.32361 37.336 4.82464 33.1804 2.70134C29.2351 0.677719 24.8192 -0.139704 20.5535 0.348756ZM14.4653 9.64943C15.3064 10.088 15.9773 11.0052 16.1575 11.992C16.3178 12.9091 15.767 14.1752 14.9259 14.8131C14.4753 15.162 13.6241 15.4511 13.0834 15.4511C12.4526 15.4511 11.6815 15.1222 11.1308 14.6337C10.4198 13.9858 10.1394 13.3378 10.1495 12.3609C10.1495 11.0849 10.7503 10.1678 11.9319 9.59959C12.3724 9.39025 12.5527 9.36034 13.2436 9.40021C13.8144 9.42015 14.1649 9.4999 14.4653 9.64943ZM31.1177 17.8336C32.0489 18.0928 32.6998 18.4616 33.4708 19.1594C34.1718 19.8074 34.6023 20.4055 35.0029 21.3426L35.2733 21.9805L35.3033 28.2906L35.3333 34.5908L32.85 34.5708L30.3667 34.5409L30.3166 29.6065C30.2665 24.363 30.2665 24.4328 29.7558 23.6154C29.6357 23.416 29.3453 23.097 29.115 22.8977C27.7832 21.7712 25.3599 22.1002 24.2985 23.5556C23.6276 24.4627 23.6576 24.1936 23.6076 29.6065L23.5575 34.5409L21.0842 34.5708L18.6008 34.5908V26.2172V17.8436L21.0842 17.8635L23.5575 17.8934L23.5875 18.9202L23.6176 19.9569L24.0081 19.5083C24.4086 19.0598 25.2998 18.4118 25.8606 18.1526C26.7117 17.7738 27.3626 17.6642 28.8947 17.6542C30.1163 17.6442 30.5569 17.6841 31.1177 17.8336ZM15.6769 26.1873L15.6469 34.5409H13.1435H10.6401L10.6101 26.3169C10.6001 21.7911 10.6101 18.033 10.6401 17.9632C10.6702 17.8735 11.281 17.8436 13.1936 17.8436H15.6969L15.6769 26.1873Z" fill="white"/>
</g>
<defs>
<clipPath id="clip0_165_43">
<rect width="44.4598" height="44.4598" fill="white" transform="translate(0.776855)"/>
</clipPath>
</defs>
</svg>
