<?xml version="1.0" standalone="no"?>
<!DOCTYPE svg PUBLIC "-//W3C//DTD SVG 20010904//EN"
 "http://www.w3.org/TR/2001/REC-SVG-20010904/DTD/svg10.dtd">
<svg version="1.0" xmlns="http://www.w3.org/2000/svg"
 width="410.000000pt" height="410.000000pt" viewBox="0 0 410.000000 410.000000"
 preserveAspectRatio="xMidYMid meet">
<metadata>
Created by potrace 1.16, written by Peter Selinger 2001-2019
</metadata>
<g transform="translate(0.000000,410.000000) scale(0.100000,-0.100000)"
fill="#000000" stroke="none">
<path d="M1819 4040 c-529 -67 -1002 -330 -1331 -740 -224 -281 -356 -576
-420 -945 -30 -173 -30 -460 0 -638 139 -818 737 -1456 1536 -1641 128 -30
152 -33 318 -46 714 -54 1409 289 1815 895 353 526 432 1221 207 1822 -221
593 -715 1049 -1329 1228 -180 52 -288 67 -515 70 -118 2 -245 0 -281 -5z
m827 -851 c21 -145 84 -268 188 -372 103 -101 227 -157 352 -157 l63 0 3 -197
c4 -276 10 -253 -70 -253 -177 0 -351 62 -519 186 l-23 16 0 -493 c0 -456 -2
-501 -20 -589 -104 -489 -634 -775 -1104 -595 -259 100 -437 299 -512 575 -27
98 -24 291 5 394 85 303 310 525 607 597 91 22 236 31 287 16 l27 -7 -2 -222
-3 -221 -110 -1 c-98 -1 -116 -4 -166 -29 -73 -36 -146 -109 -178 -177 -23
-49 -26 -67 -26 -165 0 -101 2 -114 28 -163 37 -70 103 -134 174 -169 53 -25
68 -28 163 -28 96 0 110 3 164 29 79 38 136 97 177 182 l34 69 3 933 2 932
222 -2 222 -3 12 -86z"/>
</g>
</svg>
