<svg width="46" height="46" viewBox="0 0 46 46" fill="none" xmlns="http://www.w3.org/2000/svg">
<g clip-path="url(#clip0_165_16)">
<path d="M20.0809 1.16137C14.241 1.90102 9.01929 4.80442 5.38728 9.33063C2.91443 12.4327 1.45721 15.6894 0.750678 19.763C0.419492 21.6728 0.419492 24.8412 0.750678 26.8062C2.28517 35.8366 8.88682 42.8798 17.7074 44.9221C19.1205 45.2533 19.3854 45.2864 21.218 45.4299C29.1002 46.0261 36.7727 42.2395 41.2547 35.5495C45.1517 29.7427 46.0238 22.0703 43.5399 15.4355C41.1002 8.88905 35.6467 3.85502 28.8684 1.87894C26.8813 1.30488 25.689 1.13929 23.183 1.10617C21.8804 1.08409 20.4783 1.10617 20.0809 1.16137ZM29.2106 10.556C29.4424 12.1568 30.1379 13.5146 31.286 14.6627C32.4231 15.7777 33.792 16.3959 35.172 16.3959H35.8674L35.9006 18.5707C35.9447 21.6176 36.011 21.3637 35.1278 21.3637C33.1738 21.3637 31.2529 20.6793 29.3983 19.3104L29.1444 19.1337V24.5762C29.1444 29.6103 29.1223 30.107 28.9236 31.0785C27.7755 36.4769 21.9245 39.6342 16.7359 37.647C13.8767 36.5431 11.9117 34.3462 11.0837 31.2993C10.7856 30.2174 10.8187 28.0868 11.1389 26.9497C12.0772 23.6048 14.5611 21.154 17.8399 20.3591C18.8445 20.1163 20.4452 20.0169 21.0082 20.1825L21.3063 20.2598L21.2842 22.7106L21.2511 25.1503L20.0368 25.1613C18.9549 25.1724 18.7562 25.2055 18.2042 25.4815C17.3983 25.8789 16.5924 26.6848 16.2391 27.4355C15.9852 27.9764 15.9521 28.1751 15.9521 29.257C15.9521 30.372 15.9742 30.5155 16.2612 31.0564C16.6697 31.8292 17.3983 32.5357 18.1821 32.9221C18.7672 33.1981 18.9328 33.2312 19.9816 33.2312C21.0413 33.2312 21.1959 33.1981 21.792 32.9111C22.6642 32.4916 23.2934 31.8402 23.746 30.9019L24.1214 30.1402L24.1545 19.8403L24.1766 9.55142L26.6274 9.5735L29.0781 9.60662L29.2106 10.556Z" fill="white"/>
</g>
<defs>
<clipPath id="clip0_165_16">
<rect width="45.2621" height="45.2621" fill="white" transform="translate(0 0.499023)"/>
</clipPath>
</defs>
</svg>
