<?xml version="1.0" standalone="no"?>
<!DOCTYPE svg PUBLIC "-//W3C//DTD SVG 20010904//EN"
 "http://www.w3.org/TR/2001/REC-SVG-20010904/DTD/svg10.dtd">
<svg version="1.0" xmlns="http://www.w3.org/2000/svg"
 width="225.000000pt" height="225.000000pt" viewBox="0 0 225.000000 225.000000"
 preserveAspectRatio="xMidYMid meet">
<metadata>
Created by potrace 1.16, written by Peter Selinger 2001-2019
</metadata>
<g transform="translate(0.000000,225.000000) scale(0.100000,-0.100000)"
fill="#000000" stroke="none">
<path d="M575 2103 c-49 -26 -72 -51 -101 -116 -23 -52 -28 -80 -32 -169 -4
-91 7 -221 24 -294 5 -18 -3 -24 -58 -44 -93 -33 -205 -92 -274 -143 -239
-176 -144 -405 229 -550 l109 -42 -6 -35 c-47 -268 -26 -440 64 -530 106 -106
306 -55 535 137 l61 50 76 -61 c160 -128 278 -180 394 -174 79 4 124 29 163
91 50 82 66 275 36 442 -8 44 -15 81 -15 82 0 1 24 9 53 18 86 28 228 102 289
150 209 167 154 358 -147 508 -38 19 -99 45 -134 58 l-63 22 6 36 c31 182 32
318 2 417 -21 66 -65 126 -109 147 -53 26 -153 22 -232 -8 -75 -28 -173 -89
-260 -162 l-61 -50 -76 61 c-98 78 -172 123 -254 152 -77 28 -173 31 -219 7z
m197 -104 c57 -22 193 -110 246 -159 l33 -30 -63 -73 c-35 -39 -77 -91 -93
-114 -26 -36 -36 -43 -75 -48 -25 -3 -90 -15 -145 -25 -54 -11 -101 -17 -104
-15 -12 13 -30 151 -31 236 0 109 18 183 54 222 21 22 34 27 75 27 28 0 74 -9
103 -21z m883 -5 c14 -15 30 -43 36 -63 17 -61 22 -194 10 -282 -17 -116 -19
-122 -44 -115 -12 3 -78 15 -147 27 -103 17 -127 24 -139 42 -9 12 -51 64 -95
116 l-79 94 39 33 c125 108 254 173 342 174 45 0 57 -4 77 -26z m-434 -366
l31 -38 -127 0 c-145 0 -139 -11 -51 93 l50 58 33 -38 c18 -21 47 -55 64 -75z
m85 -144 c34 -7 91 -87 178 -253 l54 -105 -45 -89 c-71 -143 -151 -266 -176
-272 -12 -3 -107 -4 -211 -3 l-190 3 -57 90 c-31 50 -78 130 -103 179 l-47 88
56 106 c76 146 146 250 170 255 32 7 340 8 371 1z m-553 -71 c-17 -26 -45 -74
-63 -107 l-33 -59 -24 63 c-13 35 -24 77 -26 94 l-2 30 85 17 c47 9 87 15 89
13 2 -2 -10 -25 -26 -51z m891 17 c9 -9 -41 -170 -52 -170 -6 1 -112 176 -120
199 -3 10 159 -18 172 -29z m-1118 -112 c15 -46 38 -107 51 -137 l23 -54 -39
-101 c-21 -56 -44 -118 -51 -139 -14 -45 -18 -45 -137 5 -135 56 -253 150
-269 215 -15 60 70 154 201 220 56 29 164 72 182 73 6 0 24 -37 39 -82z m1322
52 c188 -72 317 -188 298 -265 -16 -63 -135 -158 -269 -213 -129 -54 -121 -56
-152 40 -16 46 -39 107 -52 137 l-23 54 39 101 c21 56 44 118 51 139 6 20 16
37 21 37 5 0 45 -13 87 -30z m-202 -546 c-4 -10 -167 -47 -174 -39 -2 2 25 51
59 111 l63 107 28 -84 c16 -46 26 -89 24 -95z m-971 149 c3 -10 29 -56 56
-101 28 -46 49 -85 47 -87 -6 -6 -162 27 -172 35 -9 9 41 170 54 170 4 0 11
-8 15 -17z m57 -284 c108 -18 136 -26 148 -43 8 -12 50 -63 93 -114 42 -51 75
-97 72 -102 -12 -20 -171 -133 -226 -161 -182 -91 -265 -43 -277 161 -4 77 9
219 24 273 3 10 12 16 19 13 8 -3 74 -15 147 -27z m952 14 c29 -99 35 -291 11
-370 -22 -76 -53 -103 -114 -103 -28 0 -74 9 -103 21 -57 22 -193 110 -246
159 l-33 30 63 73 c35 39 77 91 93 113 l30 42 105 16 c58 9 119 20 135 25 45
14 53 13 59 -6z m-445 -60 c-7 -10 -36 -44 -63 -77 l-50 -58 -43 48 c-24 27
-52 61 -64 77 l-20 27 127 0 c119 0 126 -1 113 -17z"/>
<path d="M1040 1314 c-77 -33 -120 -101 -120 -189 0 -121 86 -205 207 -205
126 1 212 97 201 226 -11 137 -160 223 -288 168z"/>
</g>
</svg>
