<svg width="250" height="250" viewBox="0 0 250 250" fill="none" xmlns="http://www.w3.org/2000/svg">
<g clip-path="url(#clip0_63_1731)">
<path d="M125 250C194.036 250 250 194.036 250 125C250 55.9644 194.036 0 125 0C55.9644 0 0 55.9644 0 125C0 194.036 55.9644 250 125 250Z" fill="#0084FF"/>
<path opacity="0.1" d="M249.139 139.663L157.329 47.8516H125.088V249.999C189.123 249.954 241.883 201.759 249.139 139.663Z" fill="black"/>
<path d="M170.855 175.871C134.507 175.871 142.616 158.045 140.15 140.197H110.026C107.561 158.045 115.67 175.871 79.3213 175.871C56.0918 175.871 48.1655 186.05 48.1655 208.444V223.532C69.377 240.114 96.0776 250 125.088 250C154.1 250 180.8 240.115 202.011 223.532V208.444C202.011 186.05 194.084 175.871 170.855 175.871Z" fill="#FFD0AE"/>
<path opacity="0.1" d="M140.771 150.549C140.692 147.49 140.587 144.333 140.15 141.174H110.026C109.592 144.318 109.486 147.461 109.407 150.507C113.765 153.3 118.947 154.979 125.122 154.979C131.265 154.979 136.426 153.317 140.771 150.549Z" fill="black"/>
<path d="M88.5591 117.045C92.2803 117.045 95.2969 113.489 95.2969 109.102C95.2969 104.714 92.2803 101.158 88.5591 101.158C84.8379 101.158 81.8213 104.714 81.8213 109.102C81.8213 113.489 84.8379 117.045 88.5591 117.045Z" fill="#FFD0AE"/>
<path d="M161.686 117.045C165.407 117.045 168.423 113.489 168.423 109.102C168.423 104.714 165.407 101.158 161.686 101.158C157.964 101.158 154.948 104.714 154.948 109.102C154.948 113.489 157.964 117.045 161.686 117.045Z" fill="#FFD0AE"/>
<path d="M131.823 52.0845H118.422C100.8 52.0845 86.5151 72.751 86.5151 90.373C86.5151 90.373 87.5469 152.272 125.123 152.272C162.698 152.272 163.73 90.373 163.73 90.373C163.729 72.751 149.445 52.0845 131.823 52.0845Z" fill="#FFD0AE"/>
<path d="M85.458 102.272C79.7705 93.7321 73.1865 41.0621 105.257 42.4205C133.567 18.1735 184.538 50.5084 165.264 102.272L161.623 104.565C165.128 94.7267 162.289 70.9816 158.013 73.1998C135.343 84.9611 125.088 62.9884 105.257 64.1051C92.6094 69.3907 90.563 84.8107 89.0435 92.7311C87.5239 100.652 89.0991 104.565 89.0991 104.565L85.458 102.272Z" fill="#CCBF9A"/>
<path opacity="0.1" d="M158.013 73.1998C135.343 84.961 125.088 62.9884 105.257 64.1051C92.6094 69.3907 90.563 84.8106 89.0435 92.731C88.4014 96.0802 88.3145 98.7047 88.4253 100.628C88.499 99.1954 88.6816 97.545 89.0435 95.6607C90.563 87.7403 92.6094 72.3204 105.257 67.0348C125.088 65.9181 135.343 87.8907 158.013 76.1295C160.802 74.6827 162.979 84.2813 163.184 93.8619C163.419 83.4327 161.087 71.6046 158.013 73.1998Z" fill="black"/>
<path d="M170.762 175.871C166.019 175.871 162.04 175.565 158.689 174.998L124.995 178.669L91.3003 174.998C87.9492 175.565 83.9702 175.871 79.228 175.871C55.9985 175.871 48.0723 186.05 48.0723 208.444V223.532C69.2832 240.114 95.9834 250 124.995 250C154.006 250 180.706 240.115 201.917 223.532V208.444C201.917 186.05 193.991 175.871 170.762 175.871Z" fill="#E4E5E6"/>
<path d="M170.762 175.871C166.019 175.871 162.04 175.565 158.689 174.998L124.995 178.669L91.3003 174.998C87.9492 175.565 83.9702 175.871 79.228 175.871C55.9985 175.871 48.0723 186.05 48.0723 208.444V223.532C69.2832 240.114 95.9834 250 124.995 250C154.006 250 180.706 240.115 201.917 223.532V208.444C201.917 186.05 193.991 175.871 170.762 175.871Z" fill="#E4E5E6"/>
<path d="M140.678 178.892H109.803L120.495 192.945L117.634 249.779C120.07 249.92 122.522 250 124.994 250C127.632 250 130.248 249.908 132.846 249.747L129.987 192.945L140.678 178.892Z" fill="#BC1E2D"/>
<path opacity="0.2" d="M120.495 192.945H129.987C129.987 192.945 127.577 193.809 125.24 193.809C122.904 193.809 120.495 192.945 120.495 192.945Z" fill="black"/>
<path d="M108.233 162.198H105.918L91.2773 174.833L106.991 197.078L125.088 178.669L108.233 162.198Z" fill="white"/>
<path d="M141.995 162.198H144.259L158.9 174.833L143.187 197.078L125.088 178.669L141.995 162.198Z" fill="white"/>
<path opacity="0.1" d="M106.991 199.027L125.088 180.127L143.187 199.027L160.358 175.237L160.347 175.234C159.813 175.161 159.288 175.083 158.783 174.998L143.187 197.078L125.089 178.669L106.991 197.078L91.395 174.998C90.8897 175.083 90.3657 175.161 89.8315 175.234L89.8193 175.237L106.991 199.027Z" fill="black"/>
<path d="M175.645 175.237C172.166 175.237 159.336 171.652 156.626 171.341C156.626 171.341 133.756 213.313 125.089 213.313C116.422 213.313 93.5356 171.58 93.5356 171.58C90.7837 171.904 77.8955 175.494 74.3452 175.494C52.5352 175.494 39.9116 194.268 38.4502 215.097C60.9194 236.709 91.4507 250 125.088 250C158.638 250 189.098 236.781 211.55 215.27C210.147 194.345 197.515 175.237 175.645 175.237Z" fill="#231F20"/>
<path opacity="0.2" d="M180.013 213.313H69.9868V215.983H180.013V213.313Z" fill="black"/>
<path opacity="0.2" d="M150.382 205.266C157.565 195.148 164.711 183.604 170.177 174.383C169.213 174.178 168.196 173.95 167.168 173.713C163.642 179.642 159.46 186.458 155.051 193.193C150.328 200.407 145.342 207.52 140.654 213.313H144.4C146.374 210.794 148.378 208.088 150.382 205.266Z" fill="black"/>
<path opacity="0.2" d="M102.183 203.701C95.2695 194.025 88.3447 182.95 82.9619 173.955C81.9331 174.191 80.9155 174.418 79.9487 174.623C83.3154 180.268 87.3228 186.794 91.585 193.33C96.1611 200.345 101.024 207.359 105.714 213.313H109.464C107.088 210.391 104.635 207.134 102.183 203.701Z" fill="black"/>
</g>
<defs>
<clipPath id="clip0_63_1731">
<rect width="250" height="250" fill="white"/>
</clipPath>
</defs>
</svg>
