<svg width="250" height="250" viewBox="0 0 250 250" fill="none" xmlns="http://www.w3.org/2000/svg">
<g clip-path="url(#clip0_63_1776)">
<path d="M125 250C194.036 250 250 194.036 250 125C250 55.9644 194.036 0 125 0C55.9644 0 0 55.9644 0 125C0 194.036 55.9644 250 125 250Z" fill="#0084FF"/>
<path opacity="0.1" d="M249.407 137.193L157.552 45.3384H125V250C189.922 250 243.277 200.506 249.407 137.193Z" fill="black"/>
<path d="M170.767 175.871C134.418 175.871 142.528 158.045 140.062 140.197H109.938C107.472 158.045 115.582 175.871 79.2329 175.871C56.0034 175.871 48.0771 186.05 48.0771 208.444V223.532C69.2886 240.114 95.9888 250 125 250C154.011 250 180.711 240.115 201.922 223.532V208.444C201.922 186.05 193.997 175.871 170.767 175.871Z" fill="#FFD0AE"/>
<path opacity="0.1" d="M140.682 150.549C140.604 147.49 140.498 144.333 140.062 141.174H109.938C109.503 144.318 109.397 147.461 109.318 150.507C113.677 153.3 118.859 154.979 125.033 154.979C131.177 154.979 136.338 153.317 140.682 150.549Z" fill="black"/>
<path d="M170.767 175.871C166.024 175.871 162.045 175.565 158.694 174.998L125 178.669L91.3057 174.998C87.9546 175.564 83.9756 175.871 79.2334 175.871C56.0039 175.871 48.0776 186.05 48.0776 208.443V223.531C69.2886 240.114 95.9888 250 125 250C154.011 250 180.711 240.115 201.922 223.532V208.444C201.922 186.05 193.997 175.871 170.767 175.871Z" fill="#EFF0F0"/>
<path d="M140.437 178.892H109.562L120.254 192.945L117.394 249.779C119.83 249.92 122.282 250 124.754 250C127.392 250 130.008 249.908 132.605 249.747L129.747 192.945L140.437 178.892Z" fill="#BE1E2D"/>
<path d="M170.767 175.871C166.024 175.871 162.045 175.565 158.694 174.998L125.033 242.025L91.3052 174.998C87.9541 175.565 83.9751 175.871 79.2329 175.871C56.0034 175.871 48.0771 186.05 48.0771 208.444V223.532C69.2886 240.114 95.9888 250 125 250C154.011 250 180.711 240.115 201.922 223.532V208.444C201.922 186.05 193.997 175.871 170.767 175.871Z" fill="#314B5A"/>
<path opacity="0.2" d="M120.254 192.945H129.746C129.746 192.945 127.336 193.809 125 193.809C122.663 193.809 120.254 192.945 120.254 192.945Z" fill="black"/>
<path d="M108.145 162.198H105.83L91.1885 174.833L106.902 197.078L125 178.669L108.145 162.198Z" fill="#EFF0F0"/>
<path d="M141.906 162.198H144.17L158.812 174.833L143.098 197.078L125 178.669L141.906 162.198Z" fill="#EFF0F0"/>
<path d="M88.4707 117.045C92.1919 117.045 95.2085 113.489 95.2085 109.102C95.2085 104.714 92.1919 101.158 88.4707 101.158C84.7495 101.158 81.7329 104.714 81.7329 109.102C81.7329 113.489 84.7495 117.045 88.4707 117.045Z" fill="#FFD0AE"/>
<path d="M161.597 117.045C165.318 117.045 168.334 113.489 168.334 109.102C168.334 104.714 165.318 101.158 161.597 101.158C157.876 101.158 154.859 104.714 154.859 109.102C154.859 113.489 157.876 117.045 161.597 117.045Z" fill="#FFD0AE"/>
<path d="M131.734 52.0845H118.333C100.711 52.0845 86.4263 72.751 86.4263 90.373C86.4263 90.373 87.4575 152.272 125.034 152.272C162.61 152.272 163.641 90.373 163.641 90.373C163.641 72.751 149.356 52.0845 131.734 52.0845Z" fill="#FFD0AE"/>
<path d="M164.937 102.204C170.625 93.6637 177.209 40.9938 145.137 42.3522C116.828 18.1051 65.8565 50.4401 85.1304 102.204L88.772 104.496C88.772 104.496 88.2974 98.5231 90.917 92.6627C93.5366 86.8024 100.601 81.6774 102.584 69.2404C104.566 56.8033 139.86 79.5118 145.137 64.0362C149.001 81.3546 159.832 84.7418 161.351 92.6622C162.87 100.583 161.295 104.496 161.295 104.496L164.937 102.204Z" fill="#414042"/>
<path opacity="0.1" d="M161.351 92.6626C159.832 84.7417 149.001 81.3545 145.137 64.0366C139.859 79.5122 104.565 56.8037 102.583 69.2407C100.602 81.6777 93.5366 86.8027 90.917 92.6631C88.2978 98.5229 88.772 104.497 88.772 104.497C88.9072 102.209 89.4018 98.9834 90.917 95.5928C93.5366 89.7329 100.601 84.6074 102.583 72.1704C104.566 59.7334 139.86 82.4419 145.137 66.9663C149.001 84.2847 159.832 87.6719 161.351 95.5923C161.712 97.477 161.895 99.127 161.969 100.559C162.08 98.6362 161.994 96.0122 161.351 92.6626Z" fill="black"/>
<path opacity="0.1" d="M106.902 199.027L125 180.127L143.098 199.027L160.27 175.237L160.258 175.234C159.724 175.161 159.2 175.083 158.694 174.998L143.098 197.078L125 178.669L106.902 197.078L91.3057 174.998C90.8008 175.083 90.2764 175.161 89.7422 175.234L89.73 175.237L106.902 199.027Z" fill="black"/>
<path d="M101.779 165.693L79.2334 175.871L98.3809 192.945L88.9404 199.027L125.034 242.025L101.779 165.693Z" fill="#314B5A"/>
<path d="M148.288 165.693L170.834 175.871L151.687 192.945L161.126 199.027L125.034 242.025L148.288 165.693Z" fill="#314B5A"/>
<path opacity="0.1" d="M170.849 175.871L151.645 192.946L152.917 193.765L172.641 175.896C172.052 175.882 171.459 175.871 170.849 175.871Z" fill="black"/>
<path opacity="0.1" d="M79.0547 175.871L98.2578 192.946L96.9863 193.765L77.2622 175.896C77.8511 175.882 78.4443 175.871 79.0547 175.871Z" fill="black"/>
<path opacity="0.1" d="M160.063 200.295L125.034 242.025L90.0049 200.295L88.9404 200.98L125.034 244.105L161.126 200.98L160.063 200.295Z" fill="black"/>
</g>
<defs>
<clipPath id="clip0_63_1776">
<rect width="250" height="250" fill="white"/>
</clipPath>
</defs>
</svg>
