<svg width="300" height="300" viewBox="0 0 300 300" fill="none" xmlns="http://www.w3.org/2000/svg">
<g clip-path="url(#clip0_63_1754)">
<path d="M149.958 300.02C232.801 300.02 299.958 232.863 299.958 150.02C299.958 67.1773 232.801 0.0200195 149.958 0.0200195C67.1151 0.0200195 -0.0421753 67.1773 -0.0421753 150.02C-0.0421753 232.863 67.1151 300.02 149.958 300.02Z" fill="#FAC659"/>
<path opacity="0.1" d="M296.02 184.443L150.04 38.4626L150.009 300C220.995 299.995 280.457 250.68 296.02 184.443Z" fill="black"/>
<path d="M182.811 180.8C182.811 195.686 164.883 207.754 149.998 207.754C135.112 207.754 117.186 195.686 117.186 180.8L123.045 65.4358C123.045 50.55 135.112 38.4827 149.998 38.4827C164.884 38.4827 176.951 50.55 176.951 65.4358L182.811 180.8Z" fill="#414042"/>
<path d="M149.767 64.1801C159.007 64.1801 166.498 61.2991 166.498 57.7453C166.498 54.1915 159.007 51.3105 149.767 51.3105C140.528 51.3105 133.037 54.1915 133.037 57.7453C133.037 61.2991 140.528 64.1801 149.767 64.1801Z" fill="#FF9999"/>
<path d="M159.502 56.696H140.494C115.5 56.696 95.2383 82.8136 95.2383 105.083C95.2383 105.083 90.481 177.716 149.998 177.716C209.516 177.716 204.759 105.083 204.759 105.083C204.758 82.8136 184.496 56.696 159.502 56.696Z" fill="#414042"/>
<path opacity="0.1" d="M117.855 167.617L117.185 180.8C117.185 195.686 135.112 207.754 149.998 207.754C164.883 207.754 182.81 195.686 182.81 180.8L182.14 167.617C174.364 173.726 163.945 177.715 149.997 177.715C136.049 177.715 125.631 173.726 117.855 167.617Z" fill="black"/>
<path d="M204.878 211.065C161.26 211.065 170.991 189.674 168.032 168.257H131.883C128.924 189.674 138.656 211.065 95.0373 211.065C67.1619 211.065 57.6504 223.28 57.6504 250.152V268.257C83.1035 288.157 115.144 300.02 149.957 300.02C184.771 300.02 216.812 288.157 242.264 268.258V250.152C242.265 223.28 232.753 211.065 204.878 211.065Z" fill="#FFD0AE"/>
<path opacity="0.1" d="M168.776 180.678C168.682 177.008 168.555 173.219 168.032 169.428H131.883C131.362 173.201 131.235 176.973 131.14 180.627C136.37 183.98 142.588 185.994 149.998 185.994C157.37 185.995 163.563 184 168.776 180.678Z" fill="black"/>
<path d="M204.878 211.065C199.187 211.065 194.412 210.698 190.39 210.017C190.39 210.017 189.137 243.72 149.957 243.72C110.778 243.72 109.524 210.017 109.524 210.017C105.503 210.698 100.728 211.065 95.0373 211.065C67.1619 211.065 57.6504 223.28 57.6504 250.153V268.258C83.1035 288.157 115.144 300.02 149.957 300.02C184.771 300.02 216.812 288.157 242.264 268.258V250.153C242.265 223.28 232.753 211.065 204.878 211.065Z" fill="#ECEFC5"/>
<path d="M106.122 140.474C110.587 140.474 114.207 136.207 114.207 130.942C114.207 125.677 110.587 121.409 106.122 121.409C101.657 121.409 98.0367 125.677 98.0367 130.942C98.0367 136.207 101.657 140.474 106.122 140.474Z" fill="#FFD0AE"/>
<path d="M193.874 140.474C198.339 140.474 201.959 136.207 201.959 130.942C201.959 125.677 198.339 121.409 193.874 121.409C189.408 121.409 185.788 125.677 185.788 130.942C185.788 136.207 189.408 140.474 193.874 140.474Z" fill="#FFD0AE"/>
<path d="M158.038 62.5212H141.957C120.812 62.5212 103.669 87.321 103.669 108.468C103.669 108.468 104.907 182.747 149.998 182.747C195.09 182.747 196.327 108.468 196.327 108.468C196.327 87.321 179.185 62.5212 158.038 62.5212Z" fill="#FFD0AE"/>
<path d="M158.038 61.7104H141.958C120.812 61.7104 89.4146 92.7979 105.458 131.528C107.634 113.015 122.143 127.952 127.107 102.05C135.33 135.991 192.07 106.181 194.539 131.528C209.343 91.428 179.185 61.7104 158.038 61.7104Z" fill="#414042"/>
<path opacity="0.1" d="M127.106 102.05C122.143 127.952 107.634 113.014 105.458 131.528L105.991 133.256C108.141 114.966 122.476 129.724 127.379 104.133C135.503 137.665 191.561 108.214 194 133.256L194.539 131.528C192.07 106.181 135.33 135.991 127.106 102.05Z" fill="black"/>
<path d="M190.852 208.614V265.743H110.236V208.614H95.8805V289.744C112.819 296.375 131.255 300.02 150.544 300.02C169.832 300.02 188.269 296.375 205.207 289.744V208.614H190.852Z" fill="#F6AAA5"/>
<path opacity="0.1" d="M190.852 265.743V209.995C190.41 209.919 189.978 209.84 189.555 209.757V263.344H111.533V209.757C111.11 209.841 110.677 209.919 110.237 209.995V265.743H190.852Z" fill="black"/>
<path opacity="0.7" d="M190.852 276.583H167.615V289.034H190.852V276.583Z" fill="white"/>
<path opacity="0.1" d="M190.852 277.341V289.034H168.373V289.792H191.61V277.341H190.852Z" fill="black"/>
<path d="M179.233 279.512C180.851 279.512 182.163 278.201 182.163 276.583C182.163 274.964 180.851 273.653 179.233 273.653C177.615 273.653 176.303 274.964 176.303 276.583C176.303 278.201 177.615 279.512 179.233 279.512Z" fill="#58595B"/>
<path opacity="0.1" d="M180.862 274.734C181.174 275.2 181.357 275.76 181.357 276.363C181.357 277.981 180.046 279.292 178.427 279.292C177.824 279.292 177.265 279.109 176.799 278.797C177.324 279.581 178.218 280.098 179.233 280.098C180.851 280.098 182.163 278.786 182.163 277.168C182.163 276.154 181.646 275.259 180.862 274.734Z" fill="black"/>
</g>
<defs>
<clipPath id="clip0_63_1754">
<rect width="300" height="300" fill="white"/>
</clipPath>
</defs>
</svg>
