<?xml version="1.0" standalone="no"?>
<svg xmlns:xlink="http://www.w3.org/1999/xlink" id="wave" style="transform:rotate(0deg); transition: 0.3s" viewBox="0 0 1440 160" version="1.1" xmlns="http://www.w3.org/2000/svg"><defs><linearGradient id="sw-gradient-0" x1="0" x2="0" y1="1" y2="0"><stop stop-color="rgba(149, 203, 253, 0.2)" offset="0%"/><stop stop-color="rgba(149, 203, 253, 0.67)" offset="100%"/></linearGradient></defs><path style="transform:translate(0, 0px); opacity:1" fill="url(#sw-gradient-0)" d="M0,80L40,66.7C80,53,160,27,240,13.3C320,0,400,0,480,0C560,0,640,0,720,13.3C800,27,880,53,960,74.7C1040,96,1120,112,1200,122.7C1280,133,1360,139,1440,138.7C1520,139,1600,133,1680,122.7C1760,112,1840,96,1920,77.3C2000,59,2080,37,2160,34.7C2240,32,2320,48,2400,50.7C2480,53,2560,43,2640,53.3C2720,64,2800,96,2880,101.3C2960,107,3040,85,3120,80C3200,75,3280,85,3360,77.3C3440,69,3520,43,3600,40C3680,37,3760,59,3840,69.3C3920,80,4000,80,4080,85.3C4160,91,4240,101,4320,93.3C4400,85,4480,59,4560,40C4640,21,4720,11,4800,24C4880,37,4960,75,5040,88C5120,101,5200,91,5280,93.3C5360,96,5440,112,5520,112C5600,112,5680,96,5720,88L5760,80L5760,160L5720,160C5680,160,5600,160,5520,160C5440,160,5360,160,5280,160C5200,160,5120,160,5040,160C4960,160,4880,160,4800,160C4720,160,4640,160,4560,160C4480,160,4400,160,4320,160C4240,160,4160,160,4080,160C4000,160,3920,160,3840,160C3760,160,3680,160,3600,160C3520,160,3440,160,3360,160C3280,160,3200,160,3120,160C3040,160,2960,160,2880,160C2800,160,2720,160,2640,160C2560,160,2480,160,2400,160C2320,160,2240,160,2160,160C2080,160,2000,160,1920,160C1840,160,1760,160,1680,160C1600,160,1520,160,1440,160C1360,160,1280,160,1200,160C1120,160,1040,160,960,160C880,160,800,160,720,160C640,160,560,160,480,160C400,160,320,160,240,160C160,160,80,160,40,160L0,160Z"/></svg>